<?xml version="1.0" encoding="utf-8"?>
<!-- Generator: Adobe Illustrator 24.1.1, SVG Export Plug-In . SVG Version: 6.00 Build 0)  -->
<svg version="1.1" id="Layer_1" xmlns="http://www.w3.org/2000/svg" xmlns:xlink="http://www.w3.org/1999/xlink" x="0px" y="0px"
	 viewBox="0 0 1680 1680" style="enable-background:new 0 0 1680 1680;" xml:space="preserve">
<style type="text/css">
	.st0{fill:#0A2463;}
	.st1{fill:#0B2664;}
	.st2{fill:#0B2866;}
	.st3{fill:#0C2A67;}
	.st4{fill:#0C2C69;}
	.st5{fill:#0D2E6A;}
	.st6{fill:#0E306C;}
	.st7{fill:#0E336D;}
	.st8{fill:#0F356F;}
	.st9{fill:#103770;}
	.st10{fill:#103972;}
	.st11{fill:#113B73;}
	.st12{fill:#113D74;}
	.st13{fill:#123F76;}
	.st14{fill:#134177;}
	.st15{fill:#134379;}
	.st16{fill:#14457A;}
	.st17{fill:#15477C;}
	.st18{fill:#15497D;}
	.st19{fill:#164B7F;}
	.st20{fill:#164D80;}
	.st21{fill:#175082;}
	.st22{fill:#185283;}
	.st23{fill:#185484;}
	.st24{fill:#195686;}
	.st25{fill:#195887;}
	.st26{fill:#1A5A89;}
	.st27{fill:#1B5C8A;}
	.st28{fill:#1B5E8C;}
	.st29{fill:#1C608D;}
	.st30{fill:#1D628F;}
	.st31{fill:#1D6490;}
	.st32{fill:#1E6691;}
	.st33{fill:#1E6893;}
	.st34{fill:#1F6A94;}
	.st35{fill:#206C96;}
	.st36{fill:#206F97;}
	.st37{fill:#217199;}
	.st38{fill:#22739A;}
	.st39{fill:#22759C;}
	.st40{fill:#23779D;}
	.st41{fill:#23799F;}
	.st42{fill:#247BA0;}
	.st43{fill:none;stroke:#FFFFFF;stroke-width:2;stroke-miterlimit:10;}
	.st44{fill:#FFFFFF;}
</style>
<g>
	<rect y="1640" class="st0" width="1680" height="40"/>
	<rect y="1601" class="st1" width="1680" height="40"/>
	<rect y="1561.9" class="st2" width="1680" height="40"/>
	<rect y="1522.9" class="st3" width="1680" height="40"/>
	<rect y="1483.8" class="st4" width="1680" height="40"/>
	<rect y="1444.8" class="st5" width="1680" height="40"/>
	<rect y="1405.7" class="st6" width="1680" height="40"/>
	<rect y="1366.7" class="st7" width="1680" height="40"/>
	<rect y="1327.6" class="st8" width="1680" height="40"/>
	<rect y="1288.6" class="st9" width="1680" height="40"/>
	<rect y="1249.5" class="st10" width="1680" height="40"/>
	<rect y="1210.5" class="st11" width="1680" height="40"/>
	<rect y="1171.4" class="st12" width="1680" height="40"/>
	<rect y="1132.4" class="st13" width="1680" height="40"/>
	<rect y="1093.3" class="st14" width="1680" height="40"/>
	<rect y="1054.3" class="st15" width="1680" height="40"/>
	<rect y="1015.2" class="st16" width="1680" height="40"/>
	<rect y="976.2" class="st17" width="1680" height="40"/>
	<rect y="937.1" class="st18" width="1680" height="40"/>
	<rect y="898.1" class="st19" width="1680" height="40"/>
	<rect y="859" class="st20" width="1680" height="40"/>
	<rect y="820" class="st21" width="1680" height="40"/>
	<rect y="781" class="st22" width="1680" height="40"/>
	<rect y="741.9" class="st23" width="1680" height="40"/>
	<rect y="702.9" class="st24" width="1680" height="40"/>
	<rect y="663.8" class="st25" width="1680" height="40"/>
	<rect y="624.8" class="st26" width="1680" height="40"/>
	<rect y="585.7" class="st27" width="1680" height="40"/>
	<rect y="546.7" class="st28" width="1680" height="40"/>
	<rect y="507.6" class="st29" width="1680" height="40"/>
	<rect y="468.6" class="st30" width="1680" height="40"/>
	<rect y="429.5" class="st31" width="1680" height="40"/>
	<rect y="390.5" class="st32" width="1680" height="40"/>
	<rect y="351.4" class="st33" width="1680" height="40"/>
	<rect y="312.4" class="st34" width="1680" height="40"/>
	<rect y="273.3" class="st35" width="1680" height="40"/>
	<rect y="234.3" class="st36" width="1680" height="40"/>
	<rect y="195.2" class="st37" width="1680" height="40"/>
	<rect y="156.2" class="st38" width="1680" height="40"/>
	<rect y="117.1" class="st39" width="1680" height="40"/>
	<rect y="78.1" class="st40" width="1680" height="40"/>
	<rect y="39" class="st41" width="1680" height="40"/>
	<rect class="st42" width="1680" height="40"/>
</g>
<g>
	<line class="st43" x1="890" y1="840" x2="790" y2="840"/>
	<line class="st43" x1="790" y1="800" x2="890" y2="800"/>
	<line class="st43" x1="815" y1="820" x2="865" y2="820"/>
	<line class="st43" x1="790" y1="760" x2="890" y2="760"/>
	<line class="st43" x1="815" y1="780" x2="865" y2="780"/>
	<line class="st43" x1="790" y1="720" x2="890" y2="720"/>
	<line class="st43" x1="815" y1="740" x2="865" y2="740"/>
	<line class="st43" x1="790" y1="680" x2="890" y2="680"/>
	<line class="st43" x1="815" y1="700" x2="865" y2="700"/>
	<line class="st43" x1="790" y1="640" x2="890" y2="640"/>
	<line class="st43" x1="815" y1="660" x2="865" y2="660"/>
	<line class="st43" x1="790" y1="600" x2="890" y2="600"/>
	<line class="st43" x1="815" y1="620" x2="865" y2="620"/>
	<line class="st43" x1="790" y1="560" x2="890" y2="560"/>
	<line class="st43" x1="815" y1="580" x2="865" y2="580"/>
	<line class="st43" x1="790" y1="520" x2="890" y2="520"/>
	<line class="st43" x1="815" y1="540" x2="865" y2="540"/>
	<line class="st43" x1="790" y1="480" x2="890" y2="480"/>
	<line class="st43" x1="815" y1="500" x2="865" y2="500"/>
	<line class="st43" x1="790" y1="440" x2="890" y2="440"/>
	<line class="st43" x1="815" y1="460" x2="865" y2="460"/>
	<line class="st43" x1="790" y1="400" x2="890" y2="400"/>
	<line class="st43" x1="815" y1="420" x2="865" y2="420"/>
	<line class="st43" x1="790" y1="360" x2="890" y2="360"/>
	<line class="st43" x1="815" y1="380" x2="865" y2="380"/>
	<line class="st43" x1="790" y1="320" x2="890" y2="320"/>
	<line class="st43" x1="815" y1="340" x2="865" y2="340"/>
	<line class="st43" x1="790" y1="280" x2="890" y2="280"/>
	<line class="st43" x1="815" y1="300" x2="865" y2="300"/>
	<line class="st43" x1="790" y1="240" x2="890" y2="240"/>
	<line class="st43" x1="815" y1="260" x2="865" y2="260"/>
	<line class="st43" x1="790" y1="200" x2="890" y2="200"/>
	<line class="st43" x1="815" y1="220" x2="865" y2="220"/>
	<line class="st43" x1="790" y1="160" x2="890" y2="160"/>
	<line class="st43" x1="815" y1="180" x2="865" y2="180"/>
	<line class="st43" x1="790" y1="120" x2="890" y2="120"/>
	<line class="st43" x1="815" y1="140" x2="865" y2="140"/>
	<line class="st43" x1="790" y1="880" x2="890" y2="880"/>
	<line class="st43" x1="815" y1="860" x2="865" y2="860"/>
	<line class="st43" x1="790" y1="920" x2="890" y2="920"/>
	<line class="st43" x1="815" y1="900" x2="865" y2="900"/>
	<line class="st43" x1="790" y1="960" x2="890" y2="960"/>
	<line class="st43" x1="815" y1="940" x2="865" y2="940"/>
	<line class="st43" x1="790" y1="1000" x2="890" y2="1000"/>
	<line class="st43" x1="815" y1="980" x2="865" y2="980"/>
	<line class="st43" x1="790" y1="1040" x2="890" y2="1040"/>
	<line class="st43" x1="815" y1="1020" x2="865" y2="1020"/>
	<line class="st43" x1="790" y1="1080" x2="890" y2="1080"/>
	<line class="st43" x1="815" y1="1060" x2="865" y2="1060"/>
	<line class="st43" x1="790" y1="1120" x2="890" y2="1120"/>
	<line class="st43" x1="815" y1="1100" x2="865" y2="1100"/>
	<line class="st43" x1="790" y1="1160" x2="890" y2="1160"/>
	<line class="st43" x1="815" y1="1140" x2="865" y2="1140"/>
	<line class="st43" x1="790" y1="1200" x2="890" y2="1200"/>
	<line class="st43" x1="815" y1="1180" x2="865" y2="1180"/>
	<line class="st43" x1="790" y1="1240" x2="890" y2="1240"/>
	<line class="st43" x1="815" y1="1220" x2="865" y2="1220"/>
	<line class="st43" x1="790" y1="1280" x2="890" y2="1280"/>
	<line class="st43" x1="815" y1="1260" x2="865" y2="1260"/>
	<line class="st43" x1="790" y1="1320" x2="890" y2="1320"/>
	<line class="st43" x1="815" y1="1300" x2="865" y2="1300"/>
	<line class="st43" x1="790" y1="1360" x2="890" y2="1360"/>
	<line class="st43" x1="815" y1="1340" x2="865" y2="1340"/>
	<line class="st43" x1="790" y1="1400" x2="890" y2="1400"/>
	<line class="st43" x1="815" y1="1380" x2="865" y2="1380"/>
	<line class="st43" x1="790" y1="1440" x2="890" y2="1440"/>
	<line class="st43" x1="815" y1="1420" x2="865" y2="1420"/>
	<line class="st43" x1="790" y1="1480" x2="890" y2="1480"/>
	<line class="st43" x1="815" y1="1460" x2="865" y2="1460"/>
	<line class="st43" x1="790" y1="1520" x2="890" y2="1520"/>
	<line class="st43" x1="815" y1="1500" x2="865" y2="1500"/>
	<line class="st43" x1="790" y1="1560" x2="890" y2="1560"/>
	<line class="st43" x1="815" y1="1540" x2="865" y2="1540"/>
	<path class="st44" d="M786.9,839.9c0,3.1-1.1,4.8-3.2,4.8c-1.8,0-3-1.7-3-4.7s1.3-4.7,3.2-4.7S786.9,837,786.9,839.9z M782,840
		c0,2.4,0.7,3.7,1.9,3.7s1.9-1.5,1.9-3.8s-0.6-3.7-1.9-3.7C782.8,836.3,782,837.6,782,840L782,840z"/>
	<path class="st44" d="M899.3,839.9c0,3.1-1.1,4.8-3.2,4.8c-1.8,0-3-1.7-3-4.7s1.3-4.7,3.2-4.7S899.3,837,899.3,839.9z M894.3,840
		c0,2.4,0.7,3.7,1.9,3.7s1.9-1.5,1.9-3.8s-0.6-3.7-1.9-3.7C895.1,836.3,894.3,837.6,894.3,840L894.3,840z"/>
	<path class="st44" d="M776.1,796.6L776.1,796.6l-1.6,0.8l-0.2-0.9l2-1.1h1v9.1h-1.2V796.6z"/>
	<path class="st44" d="M786.6,799.9c0,3.1-1.1,4.8-3.2,4.8c-1.8,0-3-1.7-3-4.7s1.3-4.7,3.2-4.7S786.6,797,786.6,799.9z M781.7,800
		c0,2.4,0.7,3.7,1.9,3.7s1.9-1.5,1.9-3.8s-0.6-3.7-1.9-3.7C782.5,796.3,781.7,797.6,781.7,800L781.7,800z"/>
	<path class="st44" d="M773.7,764.6v-0.8l1-0.9c2.3-2.2,3.4-3.4,3.4-4.8c0.1-0.9-0.6-1.7-1.4-1.8c-0.1,0-0.2,0-0.4,0
		c-0.7,0-1.4,0.3-1.9,0.8l-0.4-0.9c0.7-0.6,1.6-0.9,2.6-0.9c1.4-0.1,2.7,0.9,2.8,2.3c0,0.1,0,0.2,0,0.3c0,1.7-1.2,3-3.1,4.9
		l-0.7,0.7l0,0h4.1v1L773.7,764.6z"/>
	<path class="st44" d="M786.9,759.9c0,3.1-1.1,4.8-3.2,4.8c-1.8,0-3-1.7-3-4.7s1.3-4.7,3.2-4.7S786.9,757,786.9,759.9z M782,760
		c0,2.4,0.7,3.7,1.9,3.7s1.9-1.5,1.9-3.8s-0.6-3.7-1.9-3.7C782.8,756.3,782,757.6,782,760L782,760z"/>
	<path class="st44" d="M774,723.1c0.6,0.4,1.3,0.6,2,0.6c1.6,0,2.1-1,2.1-1.8c0-1.3-1.2-1.8-2.4-1.8H775v-0.9h0.7c0.9,0,2-0.5,2-1.5
		c0-0.7-0.5-1.4-1.6-1.4c-0.7,0-1.3,0.2-1.8,0.6L774,716c0.7-0.5,1.5-0.7,2.4-0.7c1.8,0,2.6,1.1,2.6,2.2c0,1-0.7,1.9-1.7,2.1l0,0
		c1.2,0.2,2,1.2,2,2.3c0,1.5-1.1,2.7-3.3,2.7c-0.8,0-1.6-0.2-2.4-0.6L774,723.1z"/>
	<path class="st44" d="M786.9,719.9c0,3.1-1.1,4.8-3.2,4.8c-1.8,0-3-1.7-3-4.7s1.3-4.7,3.2-4.7S786.9,717,786.9,719.9z M782,720
		c0,2.4,0.7,3.7,1.9,3.7s1.9-1.5,1.9-3.8s-0.6-3.7-1.9-3.7C782.8,716.3,782,717.6,782,720L782,720z"/>
	<path class="st44" d="M777.5,684.6v-2.5h-4.2v-0.8l4.1-5.8h1.3v5.7h1.3v1h-1.3v2.5L777.5,684.6z M777.5,681.1v-3c0-0.5,0-1,0-1.4
		l0,0c-0.3,0.5-0.5,0.9-0.8,1.3l-2.2,3.1l0,0L777.5,681.1z"/>
	<path class="st44" d="M786.9,679.9c0,3.1-1.1,4.8-3.2,4.8c-1.8,0-3-1.7-3-4.7s1.3-4.7,3.2-4.7S786.9,677,786.9,679.9z M782,680
		c0,2.4,0.7,3.7,1.9,3.7s1.9-1.5,1.9-3.8s-0.6-3.7-1.9-3.7C782.8,676.3,782,677.6,782,680L782,680z"/>
	<path class="st44" d="M779.1,636.5h-3.5l-0.4,2.4c0.2,0,0.5-0.1,0.7-0.1c0.7,0,1.4,0.2,2,0.5c0.8,0.5,1.3,1.4,1.3,2.3
		c0,1.7-1.5,3.1-3.2,3.1c-0.1,0-0.1,0-0.2,0c-0.8,0-1.6-0.2-2.3-0.6l0.3-0.9c0.6,0.3,1.3,0.5,1.9,0.5c1.1,0.1,2.1-0.7,2.2-1.8
		c0-0.1,0-0.1,0-0.2c0-1.2-0.8-2-2.6-2c-0.4,0-0.8,0-1.3,0.1l0.6-4.4h4.4L779.1,636.5L779.1,636.5z"/>
	<path class="st44" d="M786.9,639.9c0,3.1-1.1,4.8-3.2,4.8c-1.8,0-3-1.7-3-4.7s1.3-4.7,3.2-4.7S786.9,637,786.9,639.9z M782,640
		c0,2.4,0.7,3.7,1.9,3.7s1.9-1.5,1.9-3.8s-0.6-3.7-1.9-3.7C782.8,636.3,782,637.6,782,640L782,640z"/>
	<path class="st44" d="M778.9,596.3c-0.3,0-0.6,0-0.9,0.1c-1.7,0.2-3,1.6-3.2,3.2l0,0c0.9-1.2,2.7-1.4,3.9-0.5
		c0.7,0.6,1.1,1.4,1,2.4c0.1,1.7-1.1,3.1-2.8,3.2c-0.1,0-0.1,0-0.2,0c-1.9,0-3.2-1.5-3.2-3.9c-0.1-1.5,0.5-3,1.6-4.1
		c0.8-0.8,1.8-1.2,2.9-1.3c0.3,0,0.6-0.1,0.9-0.1V596.3z M778.5,601.6c0.1-1-0.6-1.9-1.6-2.1c-0.1,0-0.2,0-0.3,0
		c-0.8,0-1.4,0.4-1.8,1.1c-0.1,0.2-0.1,0.4-0.1,0.5c0,1.5,0.7,2.6,2,2.6C777.8,603.8,778.5,602.9,778.5,601.6L778.5,601.6z"/>
	<path class="st44" d="M786.9,599.9c0,3.1-1.1,4.8-3.2,4.8c-1.8,0-3-1.7-3-4.7s1.3-4.7,3.2-4.7S786.9,597,786.9,599.9z M782,600
		c0,2.4,0.7,3.7,1.9,3.7s1.9-1.5,1.9-3.8s-0.6-3.7-1.9-3.7C782.8,596.3,782,597.6,782,600L782,600z"/>
	<path class="st44" d="M779.6,555.4v0.8l-4,8.3h-1.3l4-8.1l0,0h-4.4v-1H779.6z"/>
	<path class="st44" d="M786.9,559.9c0,3.1-1.1,4.8-3.2,4.8c-1.8,0-3-1.7-3-4.7s1.3-4.7,3.2-4.7S786.9,557,786.9,559.9z M782,560
		c0,2.4,0.7,3.7,1.9,3.7s1.9-1.5,1.9-3.8s-0.6-3.7-1.9-3.7C782.8,556.3,782,557.6,782,560L782,560z"/>
	<path class="st44" d="M773.6,522.3c0-1.1,0.7-2.1,1.8-2.4l0,0c-0.9-0.3-1.4-1.1-1.4-2.1c0.1-1.4,1.3-2.5,2.7-2.4h0.1
		c1.3-0.2,2.5,0.7,2.6,2c0,0.1,0,0.1,0,0.2c0,1-0.6,1.8-1.5,2.1l0,0c1.1,0.3,1.8,1.2,1.8,2.3c0,1.6-1.4,2.7-3.1,2.7
		C774.7,524.7,773.6,523.6,773.6,522.3z M778.5,522.2c0-1.1-0.8-1.6-2-2c-0.9,0.2-1.6,0.9-1.6,1.9c0,0.9,0.7,1.7,1.6,1.7
		c0.1,0,0.1,0,0.2,0c0.9,0.1,1.7-0.5,1.8-1.5C778.5,522.3,778.5,522.2,778.5,522.2L778.5,522.2z M775.1,517.6c0,0.9,0.7,1.4,1.7,1.7
		c0.8-0.2,1.3-0.9,1.4-1.7c0-0.8-0.6-1.5-1.3-1.5c-0.1,0-0.1,0-0.2,0c-0.8-0.1-1.5,0.5-1.6,1.3C775.1,517.5,775.1,517.6,775.1,517.6
		L775.1,517.6z"/>
	<path class="st44" d="M786.9,519.9c0,3.1-1.1,4.8-3.2,4.8c-1.8,0-3-1.7-3-4.7s1.3-4.7,3.2-4.7S786.9,517,786.9,519.9z M782,520
		c0,2.4,0.7,3.7,1.9,3.7s1.9-1.5,1.9-3.8s-0.6-3.7-1.9-3.7C782.8,516.3,782,517.6,782,520L782,520z"/>
	<path class="st44" d="M774.4,483.7c0.3,0,0.7,0,1,0c0.7-0.1,1.4-0.4,1.9-0.9c0.7-0.6,1.1-1.5,1.2-2.4l0,0c-0.5,0.6-1.3,1-2.1,1
		c-1.5,0-2.7-1.1-2.7-2.6c0-0.1,0-0.1,0-0.2c-0.1-1.7,1.3-3.2,3-3.2h0.1c1.9,0,3,1.5,3,3.8c0.1,1.6-0.5,3.1-1.6,4.3
		c-0.7,0.7-1.7,1.1-2.6,1.2c-0.4,0.1-0.8,0.1-1.1,0.1L774.4,483.7z M774.8,478.5c-0.1,1,0.6,1.8,1.6,1.9c0.1,0,0.1,0,0.2,0
		c0.7,0,1.4-0.4,1.8-1c0.1-0.1,0.1-0.3,0.1-0.4c0-1.6-0.6-2.7-1.9-2.7C775.6,476.2,774.8,477.2,774.8,478.5L774.8,478.5z"/>
	<path class="st44" d="M786.9,479.9c0,3.1-1.1,4.8-3.2,4.8c-1.8,0-3-1.7-3-4.7s1.3-4.7,3.2-4.7S786.9,477,786.9,479.9z M782,480
		c0,2.4,0.7,3.7,1.9,3.7s1.9-1.5,1.9-3.8s-0.6-3.7-1.9-3.7C782.8,476.3,782,477.6,782,480L782,480z"/>
	<path class="st44" d="M769.2,436.6L769.2,436.6l-1.6,0.9l-0.2-0.9l2-1.1h1.1v9.1h-1.2L769.2,436.6z"/>
	<path class="st44" d="M779.7,439.9c0,3.1-1.1,4.8-3.2,4.8c-1.8,0-3-1.7-3-4.7s1.3-4.7,3.2-4.7S779.7,437,779.7,439.9z M774.8,440
		c0,2.4,0.7,3.7,1.8,3.7c1.3,0,1.9-1.5,1.9-3.8s-0.6-3.7-1.9-3.7C775.6,436.3,774.8,437.6,774.8,440L774.8,440z"/>
	<path class="st44" d="M786.9,439.9c0,3.1-1.1,4.8-3.2,4.8c-1.8,0-3-1.7-3-4.7s1.3-4.7,3.2-4.7S786.9,437,786.9,439.9z M782,440
		c0,2.4,0.7,3.7,1.9,3.7s1.9-1.5,1.9-3.8s-0.6-3.7-1.9-3.7C782.8,436.3,782,437.6,782,440L782,440z"/>
	<path class="st44" d="M769.2,396.6L769.2,396.6l-1.6,0.9l-0.2-0.9l2-1.1h1.1v9.1h-1.2L769.2,396.6z"/>
	<path class="st44" d="M776.4,396.6L776.4,396.6l-1.6,0.9l-0.2-0.9l2-1.1h1.1v9.1h-1.2L776.4,396.6z"/>
	<path class="st44" d="M786.9,399.9c0,3.1-1.1,4.8-3.2,4.8c-1.8,0-3-1.7-3-4.7s1.3-4.7,3.2-4.7S786.9,397,786.9,399.9z M782,400
		c0,2.4,0.7,3.7,1.9,3.7s1.9-1.5,1.9-3.8s-0.6-3.7-1.9-3.7C782.8,396.3,782,397.6,782,400L782,400z"/>
	<path class="st44" d="M769.2,356.6L769.2,356.6l-1.6,0.9l-0.2-0.9l2-1.1h1.1v9.1h-1.2L769.2,356.6z"/>
	<path class="st44" d="M773.7,364.6v-0.8l1-0.9c2.3-2.2,3.4-3.4,3.4-4.8c0.1-0.9-0.6-1.7-1.4-1.8c-0.1,0-0.2,0-0.4,0
		c-0.7,0-1.4,0.3-1.9,0.8l-0.4-0.9c0.7-0.6,1.6-0.9,2.6-0.9c1.4-0.1,2.7,0.9,2.8,2.3c0,0.1,0,0.2,0,0.3c0,1.7-1.2,3-3.1,4.9
		l-0.7,0.7l0,0h4.1v1L773.7,364.6z"/>
	<path class="st44" d="M786.9,359.9c0,3.1-1.1,4.8-3.2,4.8c-1.8,0-3-1.7-3-4.7s1.3-4.7,3.2-4.7S786.9,357,786.9,359.9z M782,360
		c0,2.4,0.7,3.7,1.9,3.7s1.9-1.5,1.9-3.8s-0.6-3.7-1.9-3.7C782.8,356.3,782,357.6,782,360L782,360z"/>
	<path class="st44" d="M769.2,316.6L769.2,316.6l-1.6,0.9l-0.2-0.9l2-1.1h1.1v9.1h-1.2L769.2,316.6z"/>
	<path class="st44" d="M774,323.1c0.6,0.4,1.3,0.6,2,0.6c1.6,0,2.1-1,2.1-1.8c0-1.3-1.2-1.8-2.4-1.8H775v-0.9h0.7c0.9,0,2-0.5,2-1.5
		c0-0.7-0.5-1.4-1.6-1.4c-0.7,0-1.3,0.2-1.8,0.6L774,316c0.7-0.5,1.5-0.7,2.4-0.7c1.8,0,2.6,1.1,2.6,2.2c0,1-0.7,1.9-1.7,2.1l0,0
		c1.2,0.2,2,1.2,2,2.3c0,1.5-1.1,2.7-3.3,2.7c-0.8,0-1.6-0.2-2.4-0.6L774,323.1z"/>
	<path class="st44" d="M786.9,319.9c0,3.1-1.1,4.8-3.2,4.8c-1.8,0-3-1.7-3-4.7s1.3-4.7,3.2-4.7S786.9,317,786.9,319.9z M782,320
		c0,2.4,0.7,3.7,1.9,3.7s1.9-1.5,1.9-3.8s-0.6-3.7-1.9-3.7C782.8,316.3,782,317.6,782,320L782,320z"/>
	<path class="st44" d="M769.2,276.6L769.2,276.6l-1.6,0.9l-0.2-0.9l2-1.1h1.1v9.1h-1.2L769.2,276.6z"/>
	<path class="st44" d="M777.5,284.6v-2.5h-4.2v-0.8l4.1-5.8h1.3v5.7h1.3v1h-1.3v2.5L777.5,284.6z M777.5,281.1v-3c0-0.5,0-1,0-1.4
		l0,0c-0.3,0.5-0.5,0.9-0.8,1.3l-2.2,3.1l0,0H777.5z"/>
	<path class="st44" d="M786.9,279.9c0,3.1-1.1,4.8-3.2,4.8c-1.8,0-3-1.7-3-4.7s1.3-4.7,3.2-4.7S786.9,277,786.9,279.9z M782,280
		c0,2.4,0.7,3.7,1.9,3.7s1.9-1.5,1.9-3.8s-0.6-3.7-1.9-3.7C782.8,276.3,782,277.6,782,280L782,280z"/>
	<path class="st44" d="M769.2,236.6L769.2,236.6l-1.6,0.9l-0.2-0.9l2-1.1h1.1v9.1h-1.2L769.2,236.6z"/>
	<path class="st44" d="M779.1,236.5h-3.5l-0.4,2.4c0.2,0,0.5-0.1,0.7-0.1c0.7,0,1.4,0.2,2,0.5c0.8,0.5,1.3,1.4,1.3,2.3
		c0,1.7-1.5,3.1-3.2,3.1c-0.1,0-0.1,0-0.2,0c-0.8,0-1.6-0.2-2.3-0.6l0.3-0.9c0.6,0.3,1.3,0.5,1.9,0.5c1.1,0.1,2.1-0.7,2.2-1.8
		c0-0.1,0-0.1,0-0.2c0-1.2-0.8-2-2.6-2c-0.4,0-0.8,0-1.3,0.1l0.6-4.4h4.4L779.1,236.5L779.1,236.5z"/>
	<path class="st44" d="M786.9,239.9c0,3.1-1.1,4.8-3.2,4.8c-1.8,0-3-1.7-3-4.7s1.3-4.7,3.2-4.7S786.9,237,786.9,239.9z M782,240
		c0,2.4,0.7,3.7,1.9,3.7s1.9-1.5,1.9-3.8s-0.6-3.7-1.9-3.7C782.8,236.3,782,237.6,782,240L782,240z"/>
	<path class="st44" d="M769.2,196.6L769.2,196.6l-1.6,0.9l-0.2-0.9l2-1.1h1.1v9.1h-1.2L769.2,196.6z"/>
	<path class="st44" d="M778.9,196.3c-0.3,0-0.6,0-0.9,0.1c-1.7,0.2-3,1.6-3.2,3.2l0,0c0.9-1.2,2.7-1.4,3.9-0.5
		c0.7,0.6,1.1,1.4,1,2.4c0.1,1.7-1.1,3.1-2.8,3.2c-0.1,0-0.1,0-0.2,0c-1.9,0-3.2-1.5-3.2-3.9c-0.1-1.5,0.5-3,1.6-4.1
		c0.8-0.8,1.8-1.2,2.9-1.3c0.3,0,0.6-0.1,0.9-0.1V196.3z M778.5,201.6c0.1-1-0.6-1.9-1.6-2.1c-0.1,0-0.2,0-0.3,0
		c-0.8,0-1.4,0.4-1.8,1.1c-0.1,0.2-0.1,0.4-0.1,0.5c0,1.5,0.7,2.6,2,2.6C777.8,203.8,778.5,202.9,778.5,201.6L778.5,201.6z"/>
	<path class="st44" d="M786.9,199.9c0,3.1-1.1,4.8-3.2,4.8c-1.8,0-3-1.7-3-4.7s1.3-4.7,3.2-4.7S786.9,197,786.9,199.9z M782,200
		c0,2.4,0.7,3.7,1.9,3.7s1.9-1.5,1.9-3.8s-0.6-3.7-1.9-3.7C782.8,196.3,782,197.6,782,200L782,200z"/>
	<path class="st44" d="M769.2,156.6L769.2,156.6l-1.6,0.9l-0.2-0.9l2-1.1h1.1v9.1h-1.2L769.2,156.6z"/>
	<path class="st44" d="M779.6,155.4v0.8l-4,8.3h-1.3l4-8.1l0,0h-4.4v-1H779.6z"/>
	<path class="st44" d="M786.9,159.9c0,3.1-1.1,4.8-3.2,4.8c-1.8,0-3-1.7-3-4.7s1.3-4.7,3.2-4.7S786.9,157,786.9,159.9z M782,160
		c0,2.4,0.7,3.7,1.9,3.7s1.9-1.5,1.9-3.8s-0.6-3.7-1.9-3.7C782.8,156.3,782,157.6,782,160L782,160z"/>
	<path class="st44" d="M769.2,116.6L769.2,116.6l-1.6,0.9l-0.2-0.9l2-1.1h1.1v9.1h-1.2L769.2,116.6z"/>
	<path class="st44" d="M773.6,122.3c0-1.1,0.7-2.1,1.8-2.4l0,0c-0.9-0.3-1.4-1.1-1.4-2.1c0.1-1.4,1.3-2.5,2.7-2.4h0.1
		c1.3-0.2,2.5,0.7,2.6,2c0,0.1,0,0.1,0,0.2c0,1-0.6,1.8-1.5,2.1l0,0c1.1,0.3,1.8,1.2,1.8,2.3c0,1.6-1.4,2.7-3.1,2.7
		C774.7,124.7,773.6,123.6,773.6,122.3z M778.5,122.2c0-1.1-0.8-1.6-2-2c-0.9,0.2-1.6,0.9-1.6,1.9c0,0.9,0.7,1.7,1.6,1.7
		c0.1,0,0.1,0,0.2,0C777.6,123.9,778.4,123.3,778.5,122.2C778.5,122.3,778.5,122.2,778.5,122.2L778.5,122.2z M775.1,117.6
		c0,0.9,0.7,1.4,1.7,1.7c0.8-0.2,1.3-0.9,1.4-1.7c0-0.8-0.6-1.5-1.3-1.5c-0.1,0-0.1,0-0.2,0c-0.8-0.1-1.5,0.5-1.6,1.3
		C775.1,117.5,775.1,117.6,775.1,117.6L775.1,117.6z"/>
	<path class="st44" d="M786.9,119.9c0,3.1-1.1,4.8-3.2,4.8c-1.8,0-3-1.7-3-4.7s1.3-4.7,3.2-4.7S786.9,117,786.9,119.9z M782,120
		c0,2.4,0.7,3.7,1.9,3.7s1.9-1.5,1.9-3.8s-0.6-3.7-1.9-3.7C782.8,116.3,782,117.6,782,120L782,120z"/>
	<path class="st44" d="M894.9,796.6L894.9,796.6l-1.6,0.8l-0.2-0.9l2-1.1h1.1v9.1H895L894.9,796.6z"/>
	<path class="st44" d="M905.5,799.9c0,3.1-1.1,4.8-3.2,4.8c-1.8,0-3-1.7-3-4.7s1.3-4.7,3.2-4.7S905.5,797,905.5,799.9z M900.6,800
		c0,2.4,0.7,3.7,1.9,3.7s1.9-1.5,1.9-3.8s-0.6-3.7-1.9-3.7C901.3,796.3,900.6,797.6,900.6,800L900.6,800z"/>
	<path class="st44" d="M893.1,764.5v-0.8l1-0.9c2.3-2.2,3.4-3.4,3.4-4.8c0.1-0.9-0.6-1.7-1.5-1.8c-0.1,0-0.2,0-0.3,0
		c-0.7,0-1.4,0.3-1.9,0.8l-0.4-0.9c0.7-0.6,1.6-0.9,2.6-0.9c1.4-0.1,2.7,0.9,2.8,2.3c0,0.1,0,0.2,0,0.3c0,1.7-1.2,3-3.1,4.9
		l-0.7,0.7l0,0h4.1v1L893.1,764.5z"/>
	<path class="st44" d="M906.3,759.9c0,3.1-1.1,4.8-3.2,4.8c-1.8,0-3-1.7-3-4.7s1.3-4.7,3.2-4.7S906.3,756.9,906.3,759.9z M901.4,760
		c0,2.4,0.7,3.7,1.9,3.7s1.9-1.5,1.9-3.8s-0.6-3.7-1.9-3.7C902.2,756.2,901.4,757.5,901.4,760L901.4,760z"/>
	<path class="st44" d="M893.4,723.1c0.6,0.4,1.3,0.6,2,0.6c1.6,0,2.1-1,2.1-1.8c0-1.3-1.2-1.8-2.4-1.8h-0.7v-0.9h0.7
		c0.9,0,2-0.5,2-1.5c0-0.7-0.5-1.4-1.6-1.4c-0.7,0-1.3,0.2-1.8,0.6l-0.3-0.9c0.7-0.5,1.5-0.7,2.4-0.7c1.8,0,2.6,1.1,2.6,2.2
		c0,1-0.7,1.9-1.7,2.1l0,0c1.2,0.2,2,1.2,2,2.3c0,1.5-1.1,2.7-3.3,2.7c-0.8,0-1.7-0.2-2.4-0.6L893.4,723.1z"/>
	<path class="st44" d="M906.4,719.9c0,3.1-1.1,4.8-3.2,4.8c-1.8,0-3-1.7-3-4.7s1.3-4.7,3.2-4.7S906.4,717,906.4,719.9z M901.4,720
		c0,2.4,0.7,3.7,1.9,3.7s1.9-1.5,1.9-3.8s-0.6-3.7-1.9-3.7C902.3,716.3,901.4,717.6,901.4,720L901.4,720z"/>
	<path class="st44" d="M897.3,684.6v-2.5h-4.2v-0.8l4.1-5.8h1.3v5.7h1.3v1h-1.3v2.5L897.3,684.6z M897.3,681.1v-3c0-0.5,0-1,0-1.4
		l0,0c-0.3,0.5-0.5,0.9-0.8,1.3l-2.2,3.1l0,0L897.3,681.1z"/>
	<path class="st44" d="M906.7,679.9c0,3.1-1.1,4.8-3.2,4.8c-1.8,0-3-1.7-3-4.7s1.3-4.7,3.2-4.7S906.7,677,906.7,679.9z M901.8,680
		c0,2.4,0.7,3.7,1.9,3.7s1.9-1.5,1.9-3.8s-0.6-3.7-1.9-3.7C902.6,676.3,901.8,677.6,901.8,680L901.8,680z"/>
	<path class="st44" d="M898.6,636.5h-3.5l-0.4,2.3c0.2,0,0.5-0.1,0.7-0.1c0.7,0,1.4,0.2,2,0.5c0.8,0.5,1.3,1.4,1.3,2.3
		c0,1.7-1.5,3.1-3.2,3.1c-0.1,0-0.1,0-0.2,0c-0.8,0-1.6-0.2-2.3-0.6l0.3-0.9c0.6,0.3,1.3,0.5,1.9,0.5c1.1,0.1,2.1-0.7,2.1-1.8
		c0-0.1,0-0.1,0-0.2c0-1.2-0.8-2-2.6-2c-0.4,0-0.8,0-1.3,0.1l0.6-4.4h4.4L898.6,636.5z"/>
	<path class="st44" d="M906.4,639.9c0,3.1-1.1,4.8-3.2,4.8c-1.8,0-3-1.7-3-4.7s1.3-4.7,3.2-4.7S906.4,637,906.4,639.9z M901.4,640
		c0,2.4,0.7,3.7,1.9,3.7s1.9-1.5,1.9-3.8s-0.6-3.7-1.9-3.7C902.3,636.3,901.4,637.6,901.4,640L901.4,640z"/>
	<path class="st44" d="M898.4,596.3c-0.3,0-0.6,0-0.9,0.1c-1.7,0.2-3,1.6-3.2,3.2l0,0c0.5-0.7,1.4-1,2.2-1c1.5,0,2.7,1.1,2.8,2.6
		c0,0.1,0,0.2,0,0.3c0.1,1.7-1.1,3.1-2.8,3.2c-0.1,0-0.1,0-0.2,0c-1.9,0-3.2-1.5-3.2-3.9c-0.1-1.5,0.5-3,1.5-4.1
		c0.8-0.8,1.8-1.2,2.9-1.3c0.3,0,0.6-0.1,0.9-0.1V596.3z M898.1,601.6c0.1-1-0.6-1.9-1.6-2.1c-0.1,0-0.2,0-0.3,0
		c-0.8,0-1.4,0.4-1.8,1.1c-0.1,0.2-0.1,0.4-0.1,0.5c0,1.5,0.7,2.6,2,2.6C897.4,603.8,898.1,602.9,898.1,601.6L898.1,601.6z"/>
	<path class="st44" d="M906.5,599.9c0,3.1-1.1,4.8-3.2,4.8c-1.8,0-3-1.7-3-4.7s1.3-4.7,3.2-4.7S906.5,597,906.5,599.9z M901.5,600
		c0,2.4,0.7,3.7,1.9,3.7s1.9-1.5,1.9-3.8s-0.6-3.7-1.9-3.7C902.3,596.3,901.5,597.6,901.5,600L901.5,600z"/>
	<path class="st44" d="M898.8,555.4v0.8l-4,8.3h-1.3l3.9-8.1l0,0H893v-1H898.8z"/>
	<path class="st44" d="M906.1,559.9c0,3.1-1.1,4.8-3.2,4.8c-1.8,0-3-1.7-3-4.7s1.3-4.7,3.2-4.7S906.1,557,906.1,559.9z M901.2,560
		c0,2.4,0.7,3.7,1.9,3.7s1.9-1.5,1.9-3.8s-0.6-3.7-1.9-3.7C902,556.3,901.3,557.6,901.2,560L901.2,560z"/>
	<path class="st44" d="M893.1,522.3c0-1.1,0.7-2.1,1.8-2.4l0,0c-0.9-0.3-1.4-1.1-1.4-2.1c0.1-1.4,1.3-2.5,2.7-2.4h0.1
		c1.3-0.2,2.5,0.7,2.6,2c0,0.1,0,0.1,0,0.2c0,1-0.6,1.8-1.5,2.1l0,0c1.1,0.3,1.8,1.2,1.8,2.3c0,1.6-1.4,2.7-3.1,2.7
		C894.3,524.7,893.1,523.6,893.1,522.3z M898,522.2c0-1.1-0.8-1.6-2-2c-0.9,0.2-1.6,0.9-1.6,1.9c0,0.9,0.7,1.7,1.6,1.7
		c0.1,0,0.1,0,0.2,0c0.9,0.1,1.7-0.5,1.8-1.5C898,522.3,898,522.2,898,522.2L898,522.2z M894.6,517.6c0,0.9,0.7,1.4,1.7,1.7
		c0.8-0.2,1.3-0.9,1.4-1.7c0-0.8-0.6-1.5-1.3-1.5c-0.1,0-0.1,0-0.2,0c-0.8-0.1-1.5,0.5-1.6,1.3C894.6,517.5,894.6,517.6,894.6,517.6
		L894.6,517.6z"/>
	<path class="st44" d="M906.4,519.9c0,3.1-1.1,4.8-3.2,4.8c-1.8,0-3-1.7-3-4.7s1.3-4.7,3.2-4.7S906.4,517,906.4,519.9z M901.5,520
		c0,2.4,0.7,3.7,1.9,3.7s1.9-1.5,1.9-3.8s-0.6-3.7-1.9-3.7C902.3,516.3,901.5,517.6,901.5,520L901.5,520z"/>
	<path class="st44" d="M893.9,483.7c0.3,0,0.7,0,1,0c0.7-0.1,1.4-0.4,1.9-0.9c0.7-0.6,1.1-1.5,1.2-2.4l0,0c-1,1.2-2.7,1.3-3.8,0.4
		c-0.6-0.5-1-1.3-1-2.2c-0.1-1.7,1.3-3.2,3-3.2h0.1c1.9,0,3,1.5,3,3.8c0.1,1.6-0.5,3.1-1.6,4.3c-0.7,0.7-1.7,1.1-2.6,1.2
		c-0.4,0.1-0.8,0.1-1.1,0.1L893.9,483.7z M894.3,478.5c-0.1,1,0.6,1.8,1.6,1.9c0.1,0,0.1,0,0.2,0c0.7,0,1.4-0.4,1.8-1
		c0.1-0.1,0.1-0.3,0.1-0.4c0-1.6-0.6-2.7-1.9-2.7C895.1,476.2,894.3,477.2,894.3,478.5L894.3,478.5z"/>
	<path class="st44" d="M906.4,479.9c0,3.1-1.1,4.8-3.2,4.8c-1.8,0-3-1.7-3-4.7s1.3-4.7,3.2-4.7S906.4,477,906.4,479.9z M901.4,480
		c0,2.4,0.7,3.7,1.9,3.7s1.9-1.5,1.9-3.8s-0.6-3.7-1.9-3.7C902.3,476.3,901.4,477.6,901.4,480L901.4,480z"/>
	<path class="st44" d="M894.9,436.6L894.9,436.6l-1.6,0.9l-0.2-0.9l2-1.1h1.1v9.1H895L894.9,436.6z"/>
	<path class="st44" d="M905.5,439.9c0,3.1-1.1,4.8-3.2,4.8c-1.8,0-3-1.7-3-4.7s1.3-4.7,3.2-4.7S905.5,437,905.5,439.9z M900.6,440
		c0,2.4,0.7,3.7,1.9,3.7s1.9-1.5,1.9-3.8s-0.6-3.7-1.9-3.7C901.3,436.3,900.6,437.6,900.6,440L900.6,440z"/>
	<path class="st44" d="M912.7,439.9c0,3.1-1.1,4.8-3.2,4.8c-1.8,0-3-1.7-3-4.7s1.3-4.7,3.2-4.7S912.7,437,912.7,439.9z M907.7,440
		c0,2.4,0.7,3.7,1.9,3.7s1.9-1.5,1.9-3.8s-0.6-3.7-1.8-3.7C908.5,436.3,907.7,437.6,907.7,440L907.7,440z"/>
	<path class="st44" d="M894.9,396.6L894.9,396.6l-1.6,0.9l-0.2-0.9l2-1.1h1.1v9.1H895L894.9,396.6z"/>
	<path class="st44" d="M902.1,396.6L902.1,396.6l-1.6,0.9l-0.2-0.9l2-1.1h1v9.1h-1.2V396.6z"/>
	<path class="st44" d="M912.7,399.9c0,3.1-1.1,4.8-3.2,4.8c-1.8,0-3-1.7-3-4.7s1.3-4.7,3.2-4.7S912.7,397,912.7,399.9z M907.7,400
		c0,2.4,0.7,3.7,1.9,3.7s1.9-1.5,1.9-3.8s-0.6-3.7-1.8-3.7C908.5,396.3,907.7,397.6,907.7,400L907.7,400z"/>
	<path class="st44" d="M894.9,356.6L894.9,356.6l-1.6,0.9l-0.2-0.9l2-1.1h1.1v9.1H895L894.9,356.6z"/>
	<path class="st44" d="M899.4,364.6v-0.8l1-0.9c2.3-2.2,3.4-3.4,3.4-4.8c0.1-0.9-0.6-1.7-1.5-1.8c-0.1,0-0.2,0-0.3,0
		c-0.7,0-1.4,0.3-1.9,0.8l-0.4-0.9c0.7-0.6,1.6-0.9,2.6-0.9c1.4-0.1,2.6,0.9,2.8,2.3c0,0.1,0,0.2,0,0.3c0,1.7-1.2,3-3.1,4.9
		l-0.7,0.7l0,0h4v1L899.4,364.6z"/>
	<path class="st44" d="M912.7,359.9c0,3.1-1.1,4.8-3.2,4.8c-1.8,0-3-1.7-3-4.7s1.3-4.7,3.2-4.7S912.7,357,912.7,359.9z M907.7,360
		c0,2.4,0.7,3.7,1.9,3.7s1.9-1.5,1.9-3.8s-0.6-3.7-1.8-3.7C908.5,356.3,907.7,357.6,907.7,360L907.7,360z"/>
	<path class="st44" d="M894.9,316.6L894.9,316.6l-1.6,0.9l-0.2-0.9l2-1.1h1.1v9.1H895L894.9,316.6z"/>
	<path class="st44" d="M899.7,323.1c0.6,0.4,1.3,0.6,2,0.6c1.6,0,2.1-1,2.1-1.8c0-1.3-1.2-1.8-2.4-1.8h-0.7v-0.9h0.7
		c0.9,0,2-0.5,2-1.5c0-0.7-0.5-1.4-1.6-1.4c-0.7,0-1.3,0.2-1.8,0.6l-0.3-0.9c0.7-0.5,1.5-0.7,2.4-0.7c1.8,0,2.6,1.1,2.6,2.2
		c0,1-0.7,1.9-1.7,2.1l0,0c1.2,0.2,2,1.2,2,2.3c0,1.5-1.1,2.7-3.3,2.7c-0.8,0-1.7-0.2-2.4-0.6L899.7,323.1z"/>
	<path class="st44" d="M912.7,319.9c0,3.1-1.1,4.8-3.2,4.8c-1.8,0-3-1.7-3-4.7s1.3-4.7,3.2-4.7S912.7,317,912.7,319.9z M907.7,320
		c0,2.4,0.7,3.7,1.9,3.7s1.9-1.5,1.9-3.8s-0.6-3.7-1.8-3.7C908.5,316.3,907.7,317.6,907.7,320L907.7,320z"/>
	<path class="st44" d="M894.9,276.6L894.9,276.6l-1.6,0.9l-0.2-0.9l2-1.1h1.1v9.1H895L894.9,276.6z"/>
	<path class="st44" d="M903.3,284.6v-2.5H899v-0.8l4.1-5.8h1.3v5.7h1.3v1h-1.3v2.5L903.3,284.6z M903.3,281.1v-3c0-0.5,0-1,0.1-1.4
		h-0.1c-0.3,0.5-0.5,0.9-0.8,1.3l-2.2,3.1l0,0H903.3z"/>
	<path class="st44" d="M912.7,279.9c0,3.1-1.1,4.8-3.2,4.8c-1.8,0-3-1.7-3-4.7s1.3-4.7,3.2-4.7S912.7,277,912.7,279.9z M907.7,280
		c0,2.4,0.7,3.7,1.9,3.7s1.9-1.5,1.9-3.8s-0.6-3.7-1.8-3.7C908.5,276.3,907.7,277.6,907.7,280L907.7,280z"/>
	<path class="st44" d="M894.9,236.6L894.9,236.6l-1.6,0.9l-0.2-0.9l2-1.1h1.1v9.1H895L894.9,236.6z"/>
	<path class="st44" d="M904.9,236.5h-3.5l-0.4,2.3c0.2,0,0.5-0.1,0.7-0.1c0.7,0,1.4,0.2,2,0.5c0.8,0.5,1.3,1.4,1.3,2.3
		c0,1.7-1.5,3.1-3.2,3.1c-0.1,0-0.1,0-0.2,0c-0.8,0-1.6-0.2-2.3-0.6l0.3-0.9c0.6,0.3,1.3,0.5,1.9,0.5c1.1,0.1,2.1-0.7,2.2-1.8
		c0-0.1,0-0.1,0-0.2c0-1.2-0.8-2-2.6-2c-0.4,0-0.8,0-1.3,0.1l0.6-4.4h4.4L904.9,236.5z"/>
	<path class="st44" d="M912.7,239.9c0,3.1-1.1,4.8-3.2,4.8c-1.8,0-3-1.7-3-4.7s1.3-4.7,3.2-4.7S912.7,237,912.7,239.9z M907.7,240
		c0,2.4,0.7,3.7,1.9,3.7s1.9-1.5,1.9-3.8s-0.6-3.7-1.8-3.7C908.5,236.3,907.7,237.6,907.7,240L907.7,240z"/>
	<path class="st44" d="M894.9,196.6L894.9,196.6l-1.6,0.9l-0.2-0.9l2-1.1h1.1v9.1H895L894.9,196.6z"/>
	<path class="st44" d="M904.6,196.3c-0.3,0-0.6,0-0.9,0.1c-1.7,0.2-3,1.6-3.2,3.2l0,0c0.5-0.7,1.4-1,2.2-1c1.5,0,2.7,1.1,2.8,2.6
		c0,0.1,0,0.2,0,0.3c0.1,1.7-1.1,3.1-2.8,3.2c-0.1,0-0.1,0-0.2,0c-1.9,0-3.2-1.5-3.2-3.9c0-1.5,0.5-3,1.5-4.1
		c0.8-0.8,1.8-1.2,2.9-1.3c0.3,0,0.6-0.1,0.9-0.1V196.3z M904.3,201.6c0.1-1-0.6-1.9-1.6-2.1c-0.1,0-0.2,0-0.3,0
		c-0.8,0-1.4,0.4-1.8,1.1c-0.1,0.2-0.1,0.4-0.1,0.5c0,1.5,0.7,2.6,2,2.6C903.6,203.8,904.3,202.9,904.3,201.6L904.3,201.6z"/>
	<path class="st44" d="M912.7,199.9c0,3.1-1.1,4.8-3.2,4.8c-1.8,0-3-1.7-3-4.7s1.3-4.7,3.2-4.7S912.7,197,912.7,199.9z M907.7,200
		c0,2.4,0.7,3.7,1.9,3.7s1.9-1.5,1.9-3.8s-0.6-3.7-1.8-3.7C908.5,196.3,907.7,197.6,907.7,200L907.7,200z"/>
	<path class="st44" d="M894.9,156.6L894.9,156.6l-1.6,0.9l-0.2-0.9l2-1.1h1.1v9.1H895L894.9,156.6z"/>
	<path class="st44" d="M905.4,155.4v0.8l-4,8.3h-1.3l4-8.1l0,0h-4.5v-1H905.4z"/>
	<path class="st44" d="M912.7,159.9c0,3.1-1.1,4.8-3.2,4.8c-1.8,0-3-1.7-3-4.7s1.3-4.7,3.2-4.7S912.7,157,912.7,159.9z M907.7,160
		c0,2.4,0.7,3.7,1.9,3.7s1.9-1.5,1.9-3.8s-0.6-3.7-1.8-3.7C908.5,156.3,907.7,157.6,907.7,160L907.7,160z"/>
	<path class="st44" d="M894.9,116.6L894.9,116.6l-1.6,0.9l-0.2-0.9l2-1.1h1.1v9.1H895L894.9,116.6z"/>
	<path class="st44" d="M899.3,122.3c0-1.1,0.7-2.1,1.8-2.4l0,0c-0.9-0.3-1.4-1.1-1.4-2.1c0.1-1.4,1.3-2.5,2.7-2.4c0.1,0,0.1,0,0.2,0
		c1.3-0.2,2.5,0.7,2.6,2c0,0.1,0,0.1,0,0.2c0,1-0.6,1.8-1.5,2.1l0,0c1.1,0.3,1.8,1.3,1.8,2.3c-0.1,1.5-1.4,2.7-2.9,2.7
		c-0.1,0-0.1,0-0.2,0C900.5,124.7,899.3,123.6,899.3,122.3z M904.2,122.2c0-1.1-0.8-1.6-2-2c-0.9,0.2-1.6,0.9-1.6,1.9
		c0,0.9,0.7,1.7,1.6,1.7c0.1,0,0.1,0,0.2,0c0.9,0.1,1.7-0.5,1.8-1.4C904.2,122.3,904.2,122.3,904.2,122.2L904.2,122.2z M900.9,117.6
		c0,0.9,0.7,1.4,1.7,1.7c0.8-0.2,1.3-0.9,1.4-1.7c0-0.8-0.6-1.5-1.3-1.5c-0.1,0-0.1,0-0.2,0c-0.8-0.1-1.5,0.5-1.6,1.3
		C900.9,117.5,900.8,117.6,900.9,117.6L900.9,117.6z"/>
	<path class="st44" d="M912.7,119.9c0,3.1-1.1,4.8-3.2,4.8c-1.8,0-3-1.7-3-4.7s1.3-4.7,3.2-4.7S912.7,117,912.7,119.9z M907.7,120
		c0,2.4,0.7,3.7,1.9,3.7s1.9-1.5,1.9-3.8s-0.6-3.7-1.8-3.7C908.5,116.3,907.7,117.6,907.7,120L907.7,120z"/>
	<path class="st44" d="M776.1,876.6L776.1,876.6l-1.6,0.9l-0.2-0.9l2-1.1h1v9.1h-1.2V876.6z"/>
	<path class="st44" d="M786.6,879.9c0,3.1-1.1,4.8-3.2,4.8c-1.8,0-3-1.7-3-4.7s1.3-4.7,3.2-4.7S786.6,877,786.6,879.9z M781.7,880
		c0,2.4,0.7,3.7,1.9,3.7s1.9-1.5,1.9-3.8s-0.6-3.7-1.9-3.7C782.5,876.3,781.7,877.6,781.7,880L781.7,880z"/>
	<path class="st44" d="M773.7,924.6v-0.8l1-0.9c2.3-2.2,3.4-3.4,3.4-4.8c0.1-0.9-0.6-1.7-1.5-1.8c-0.1,0-0.2,0-0.3,0
		c-0.7,0-1.4,0.3-1.9,0.8l-0.4-0.9c0.7-0.6,1.6-0.9,2.6-0.9c1.4-0.1,2.7,0.9,2.8,2.3c0,0.1,0,0.2,0,0.3c0,1.7-1.2,3-3.1,4.9
		l-0.7,0.7l0,0h4.1v1L773.7,924.6z"/>
	<path class="st44" d="M786.9,919.9c0,3.1-1.1,4.8-3.2,4.8c-1.8,0-3-1.7-3-4.7s1.3-4.7,3.2-4.7S786.9,917,786.9,919.9z M782,920
		c0,2.4,0.7,3.7,1.9,3.7s1.9-1.5,1.9-3.8s-0.6-3.7-1.9-3.7C782.8,916.3,782,917.6,782,920L782,920z"/>
	<path class="st44" d="M774,963.1c0.6,0.4,1.3,0.6,2,0.6c1.6,0,2.1-1,2.1-1.8c0-1.3-1.2-1.8-2.4-1.8H775v-0.9h0.7c0.9,0,2-0.5,2-1.5
		c0-0.7-0.5-1.4-1.6-1.4c-0.7,0-1.3,0.2-1.8,0.6L774,956c0.7-0.5,1.5-0.7,2.4-0.7c1.8,0,2.6,1.1,2.6,2.2c0,1-0.7,1.9-1.7,2.1l0,0
		c1.2,0.2,2,1.2,2,2.3c0,1.5-1.1,2.7-3.3,2.7c-0.8,0-1.7-0.2-2.4-0.6L774,963.1z"/>
	<path class="st44" d="M786.9,959.9c0,3.1-1.1,4.8-3.2,4.8c-1.8,0-3-1.7-3-4.7s1.3-4.7,3.2-4.7S786.9,957,786.9,959.9z M782,960
		c0,2.4,0.7,3.7,1.9,3.7s1.9-1.5,1.9-3.8s-0.6-3.7-1.9-3.7C782.8,956.3,782,957.6,782,960L782,960z"/>
	<path class="st44" d="M777.5,1004.6v-2.5h-4.2v-0.8l4.1-5.8h1.3v5.7h1.3v1h-1.3v2.5L777.5,1004.6z M777.5,1001.1v-3
		c0-0.5,0-1,0.1-1.4h-0.1c-0.3,0.5-0.5,0.9-0.8,1.4l-2.2,3.1l0,0L777.5,1001.1z"/>
	<path class="st44" d="M786.9,999.9c0,3.1-1.1,4.8-3.2,4.8c-1.8,0-3-1.7-3-4.7s1.3-4.7,3.2-4.7S786.9,997,786.9,999.9z M782,1000
		c0,2.4,0.7,3.7,1.9,3.7s1.9-1.5,1.9-3.8s-0.6-3.7-1.9-3.7C782.8,996.3,782,997.6,782,1000L782,1000z"/>
	<path class="st44" d="M779.1,1036.5h-3.5l-0.4,2.4c0.2,0,0.5-0.1,0.8-0.1c0.7,0,1.4,0.2,2,0.5c0.8,0.5,1.3,1.4,1.3,2.3
		c0,1.7-1.5,3.1-3.2,3.1c-0.1,0-0.1,0-0.2,0c-0.8,0-1.6-0.2-2.3-0.6l0.3-0.9c0.6,0.3,1.3,0.5,1.9,0.5c1.1,0.1,2.1-0.7,2.1-1.8
		c0-0.1,0-0.1,0-0.2c0-1.2-0.8-2-2.6-2c-0.4,0-0.8,0-1.3,0.1l0.6-4.4h4.4L779.1,1036.5z"/>
	<path class="st44" d="M786.9,1039.9c0,3.1-1.1,4.8-3.2,4.8c-1.8,0-3-1.7-3-4.7s1.3-4.7,3.2-4.7S786.9,1037,786.9,1039.9z M782,1040
		c0,2.4,0.7,3.7,1.9,3.7s1.9-1.5,1.9-3.8s-0.6-3.7-1.9-3.7C782.8,1036.3,782,1037.6,782,1040L782,1040z"/>
	<path class="st44" d="M778.9,1076.3c-0.3,0-0.6,0-0.9,0.1c-1.7,0.2-3,1.6-3.2,3.2l0,0c0.5-0.7,1.3-1.1,2.2-1.1
		c1.5,0,2.7,1.1,2.8,2.6c0,0.1,0,0.2,0,0.3c0.1,1.7-1.1,3.1-2.8,3.2c-0.1,0-0.1,0-0.2,0c-1.9,0-3.2-1.5-3.2-3.9
		c-0.1-1.5,0.5-3,1.5-4.1c0.8-0.8,1.8-1.2,2.9-1.4c0.3,0,0.6-0.1,0.9-0.1V1076.3z M778.5,1081.6c0.1-1-0.6-1.9-1.6-2.1
		c-0.1,0-0.2,0-0.3,0c-0.8,0-1.4,0.4-1.8,1.1c-0.1,0.2-0.1,0.4-0.1,0.5c0,1.5,0.7,2.6,2,2.6C777.8,1083.8,778.5,1082.9,778.5,1081.6
		z"/>
	<path class="st44" d="M786.9,1079.9c0,3.1-1.1,4.8-3.2,4.8c-1.8,0-3-1.7-3-4.7s1.3-4.7,3.2-4.7S786.9,1077,786.9,1079.9z M782,1080
		c0,2.4,0.7,3.7,1.9,3.7s1.9-1.5,1.9-3.8s-0.6-3.7-1.9-3.7C782.8,1076.3,782,1077.6,782,1080L782,1080z"/>
	<path class="st44" d="M779.6,1115.5v0.8l-4,8.3h-1.3l4-8.1l0,0h-4.5v-1L779.6,1115.5z"/>
	<path class="st44" d="M786.9,1119.9c0,3.1-1.1,4.8-3.2,4.8c-1.8,0-3-1.7-3-4.7s1.3-4.7,3.2-4.7S786.9,1117,786.9,1119.9z M782,1120
		c0,2.4,0.7,3.7,1.9,3.7s1.9-1.5,1.9-3.8s-0.6-3.7-1.9-3.7C782.8,1116.3,782,1117.6,782,1120L782,1120z"/>
	<path class="st44" d="M773.6,1162.3c0-1.1,0.7-2.1,1.8-2.4l0,0c-0.8-0.3-1.4-1.1-1.4-2c0.1-1.4,1.3-2.5,2.7-2.4c0.1,0,0.1,0,0.2,0
		c1.3-0.2,2.5,0.7,2.6,2c0,0.1,0,0.1,0,0.2c0,0.9-0.6,1.8-1.5,2.1l0,0c1.1,0.3,1.8,1.3,1.8,2.4c-0.1,1.5-1.4,2.7-2.9,2.7
		c-0.1,0-0.1,0-0.2,0C774.7,1164.7,773.6,1163.6,773.6,1162.3z M778.5,1162.2c0-1.1-0.8-1.6-2-2c-0.9,0.2-1.6,0.9-1.6,1.9
		c0,0.9,0.7,1.7,1.6,1.7c0.1,0,0.1,0,0.2,0C777.6,1163.9,778.4,1163.3,778.5,1162.2C778.5,1162.3,778.5,1162.2,778.5,1162.2z
		 M775.1,1157.6c0,0.9,0.7,1.4,1.7,1.7c0.8-0.2,1.3-0.9,1.4-1.6c0-0.8-0.6-1.5-1.3-1.5c-0.1,0-0.1,0-0.2,0
		C775.9,1156.1,775.2,1156.7,775.1,1157.6C775.1,1157.5,775.1,1157.6,775.1,1157.6z"/>
	<path class="st44" d="M786.9,1159.9c0,3.1-1.1,4.8-3.2,4.8c-1.8,0-3-1.7-3-4.7s1.3-4.7,3.2-4.7S786.9,1157,786.9,1159.9z M782,1160
		c0,2.4,0.7,3.7,1.9,3.7s1.9-1.5,1.9-3.8s-0.6-3.7-1.9-3.7C782.8,1156.3,782,1157.6,782,1160L782,1160z"/>
	<path class="st44" d="M774.4,1203.7c0.3,0,0.7,0,1,0c0.7-0.1,1.4-0.4,1.9-0.9c0.7-0.6,1.1-1.5,1.2-2.4l0,0c-1,1.2-2.7,1.3-3.8,0.4
		c-0.6-0.5-1-1.3-1-2.2c-0.1-1.7,1.3-3.2,3-3.2h0.1c1.9,0,3,1.5,3,3.8c0.1,1.6-0.5,3.1-1.6,4.3c-0.7,0.7-1.7,1.1-2.6,1.2
		c-0.4,0.1-0.8,0.1-1.1,0.1L774.4,1203.7z M774.8,1198.5c-0.1,1,0.6,1.8,1.6,1.9c0.1,0,0.1,0,0.2,0c0.7,0,1.4-0.3,1.8-0.9
		c0.1-0.1,0.1-0.3,0.1-0.4c0-1.6-0.6-2.7-1.9-2.7C775.6,1196.2,774.8,1197.2,774.8,1198.5L774.8,1198.5z"/>
	<path class="st44" d="M786.9,1199.9c0,3.1-1.1,4.8-3.2,4.8c-1.8,0-3-1.7-3-4.7s1.3-4.7,3.2-4.7S786.9,1197,786.9,1199.9z M782,1200
		c0,2.4,0.7,3.7,1.9,3.7s1.9-1.5,1.9-3.8s-0.6-3.7-1.9-3.7C782.8,1196.3,782,1197.6,782,1200L782,1200z"/>
	<path class="st44" d="M769.2,1236.6L769.2,1236.6l-1.6,0.9l-0.2-0.9l2-1.1h1.1v9.1h-1.2L769.2,1236.6z"/>
	<path class="st44" d="M779.7,1239.9c0,3.1-1.1,4.8-3.2,4.8c-1.8,0-3-1.7-3-4.7s1.3-4.7,3.2-4.7S779.7,1237,779.7,1239.9z
		 M774.8,1240c0,2.4,0.7,3.7,1.9,3.7s1.9-1.5,1.9-3.8s-0.6-3.7-1.9-3.7C775.6,1236.3,774.8,1237.6,774.8,1240L774.8,1240z"/>
	<path class="st44" d="M786.9,1239.9c0,3.1-1.1,4.8-3.2,4.8c-1.8,0-3-1.7-3-4.7s1.3-4.7,3.2-4.7S786.9,1237,786.9,1239.9z M782,1240
		c0,2.4,0.7,3.7,1.9,3.7s1.9-1.5,1.9-3.8s-0.6-3.7-1.9-3.7C782.8,1236.3,782,1237.6,782,1240L782,1240z"/>
	<path class="st44" d="M769.2,1276.6L769.2,1276.6l-1.6,0.9l-0.2-0.9l2-1.1h1.1v9.1h-1.2L769.2,1276.6z"/>
	<path class="st44" d="M776.4,1276.6L776.4,1276.6l-1.6,0.9l-0.2-0.9l2-1.1h1.1v9.1h-1.2L776.4,1276.6z"/>
	<path class="st44" d="M786.9,1279.9c0,3.1-1.1,4.8-3.2,4.8c-1.8,0-3-1.7-3-4.7s1.3-4.7,3.2-4.7S786.9,1277,786.9,1279.9z M782,1280
		c0,2.4,0.7,3.7,1.9,3.7s1.9-1.5,1.9-3.8s-0.6-3.7-1.9-3.7C782.8,1276.3,782,1277.6,782,1280L782,1280z"/>
	<path class="st44" d="M769.2,1316.6L769.2,1316.6l-1.6,0.9l-0.2-0.9l2-1.1h1.1v9.1h-1.2L769.2,1316.6z"/>
	<path class="st44" d="M773.7,1324.6v-0.8l1-0.9c2.3-2.2,3.4-3.4,3.4-4.8c0.1-0.9-0.6-1.7-1.5-1.8c-0.1,0-0.2,0-0.3,0
		c-0.7,0-1.4,0.3-1.9,0.8l-0.4-0.9c0.7-0.6,1.6-0.9,2.6-0.9c1.4-0.1,2.7,0.9,2.8,2.3c0,0.1,0,0.2,0,0.3c0,1.7-1.2,3-3.1,4.9
		l-0.7,0.7l0,0h4.1v1L773.7,1324.6z"/>
	<path class="st44" d="M786.9,1319.9c0,3.1-1.1,4.8-3.2,4.8c-1.8,0-3-1.7-3-4.7s1.3-4.7,3.2-4.7S786.9,1317,786.9,1319.9z M782,1320
		c0,2.4,0.7,3.7,1.9,3.7s1.9-1.5,1.9-3.8s-0.6-3.7-1.9-3.7C782.8,1316.3,782,1317.6,782,1320L782,1320z"/>
	<path class="st44" d="M769.2,1356.6L769.2,1356.6l-1.6,0.9l-0.2-0.9l2-1.1h1.1v9.1h-1.2L769.2,1356.6z"/>
	<path class="st44" d="M774,1363.1c0.6,0.4,1.3,0.6,2,0.6c1.6,0,2.1-1,2.1-1.8c0-1.3-1.2-1.8-2.4-1.8H775v-0.9h0.7
		c0.9,0,2-0.5,2-1.5c0-0.7-0.5-1.4-1.6-1.4c-0.7,0-1.3,0.2-1.8,0.6l-0.3-0.9c0.7-0.5,1.5-0.7,2.4-0.7c1.8,0,2.6,1.1,2.6,2.2
		c0,1-0.7,1.9-1.7,2.1l0,0c1.2,0.2,2,1.2,2,2.3c0,1.5-1.1,2.7-3.3,2.7c-0.8,0-1.7-0.2-2.4-0.6L774,1363.1z"/>
	<path class="st44" d="M786.9,1359.9c0,3.1-1.1,4.8-3.2,4.8c-1.8,0-3-1.7-3-4.7s1.3-4.7,3.2-4.7S786.9,1357,786.9,1359.9z M782,1360
		c0,2.4,0.7,3.7,1.9,3.7s1.9-1.5,1.9-3.8s-0.6-3.7-1.9-3.7C782.8,1356.3,782,1357.6,782,1360L782,1360z"/>
	<path class="st44" d="M769.2,1396.6L769.2,1396.6l-1.6,0.9l-0.2-0.9l2-1.1h1.1v9.1h-1.2L769.2,1396.6z"/>
	<path class="st44" d="M777.5,1404.6v-2.5h-4.2v-0.8l4.1-5.8h1.3v5.7h1.3v1h-1.3v2.5L777.5,1404.6z M777.5,1401.1v-3
		c0-0.5,0-1,0.1-1.4h-0.1c-0.3,0.5-0.5,0.9-0.8,1.4l-2.2,3.1l0,0L777.5,1401.1z"/>
	<path class="st44" d="M786.9,1399.9c0,3.1-1.1,4.8-3.2,4.8c-1.8,0-3-1.7-3-4.7s1.3-4.7,3.2-4.7S786.9,1397,786.9,1399.9z M782,1400
		c0,2.4,0.7,3.7,1.9,3.7s1.9-1.5,1.9-3.8s-0.6-3.7-1.9-3.7C782.8,1396.3,782,1397.6,782,1400L782,1400z"/>
	<path class="st44" d="M769.2,1436.6L769.2,1436.6l-1.6,0.9l-0.2-0.9l2-1.1h1.1v9.1h-1.2L769.2,1436.6z"/>
	<path class="st44" d="M779.1,1436.5h-3.5l-0.4,2.4c0.2,0,0.5-0.1,0.8-0.1c0.7,0,1.4,0.2,2,0.5c0.8,0.5,1.3,1.4,1.3,2.3
		c0,1.7-1.5,3.1-3.2,3.1c-0.1,0-0.1,0-0.2,0c-0.8,0-1.6-0.2-2.3-0.6l0.3-0.9c0.6,0.3,1.3,0.5,1.9,0.5c1.1,0.1,2.1-0.7,2.1-1.8
		c0-0.1,0-0.1,0-0.2c0-1.2-0.8-2-2.6-2c-0.4,0-0.8,0-1.3,0.1l0.6-4.4h4.4L779.1,1436.5z"/>
	<path class="st44" d="M786.9,1439.9c0,3.1-1.1,4.8-3.2,4.8c-1.8,0-3-1.7-3-4.7s1.3-4.7,3.2-4.7S786.9,1437,786.9,1439.9z M782,1440
		c0,2.4,0.7,3.7,1.9,3.7s1.9-1.5,1.9-3.8s-0.6-3.7-1.9-3.7C782.8,1436.3,782,1437.6,782,1440L782,1440z"/>
	<path class="st44" d="M769.2,1476.6L769.2,1476.6l-1.6,0.9l-0.2-0.9l2-1.1h1.1v9.1h-1.2L769.2,1476.6z"/>
	<path class="st44" d="M778.9,1476.3c-0.3,0-0.6,0-0.9,0.1c-1.7,0.2-3,1.6-3.2,3.2l0,0c0.5-0.7,1.3-1.1,2.2-1.1
		c1.5,0,2.7,1.1,2.8,2.6c0,0.1,0,0.2,0,0.3c0.1,1.7-1.1,3.1-2.8,3.2c-0.1,0-0.1,0-0.2,0c-1.9,0-3.2-1.5-3.2-3.9
		c-0.1-1.5,0.5-3,1.5-4.1c0.8-0.8,1.8-1.2,2.9-1.4c0.3,0,0.6-0.1,0.9-0.1V1476.3z M778.5,1481.6c0.1-1-0.6-1.9-1.6-2.1
		c-0.1,0-0.2,0-0.3,0c-0.8,0-1.4,0.4-1.8,1.1c-0.1,0.2-0.1,0.4-0.1,0.5c0,1.5,0.7,2.6,2,2.6C777.8,1483.8,778.5,1482.9,778.5,1481.6
		z"/>
	<path class="st44" d="M786.9,1479.9c0,3.1-1.1,4.8-3.2,4.8c-1.8,0-3-1.7-3-4.7s1.3-4.7,3.2-4.7S786.9,1477,786.9,1479.9z M782,1480
		c0,2.4,0.7,3.7,1.9,3.7s1.9-1.5,1.9-3.8s-0.6-3.7-1.9-3.7C782.8,1476.3,782,1477.6,782,1480L782,1480z"/>
	<path class="st44" d="M769.2,1516.6L769.2,1516.6l-1.6,0.9l-0.2-0.9l2-1.1h1.1v9.1h-1.2L769.2,1516.6z"/>
	<path class="st44" d="M779.6,1515.5v0.8l-4,8.3h-1.3l4-8.1l0,0h-4.5v-1L779.6,1515.5z"/>
	<path class="st44" d="M786.9,1519.9c0,3.1-1.1,4.8-3.2,4.8c-1.8,0-3-1.7-3-4.7s1.3-4.7,3.2-4.7S786.9,1517,786.9,1519.9z M782,1520
		c0,2.4,0.7,3.7,1.9,3.7s1.9-1.5,1.9-3.8s-0.6-3.7-1.9-3.7C782.8,1516.3,782,1517.6,782,1520L782,1520z"/>
	<path class="st44" d="M769.2,1556.6L769.2,1556.6l-1.6,0.9l-0.2-0.9l2-1.1h1.1v9.1h-1.2L769.2,1556.6z"/>
	<path class="st44" d="M773.6,1562.3c0-1.1,0.7-2.1,1.8-2.4l0,0c-0.8-0.3-1.4-1.1-1.4-2c0.1-1.4,1.3-2.5,2.7-2.4c0.1,0,0.1,0,0.2,0
		c1.3-0.2,2.5,0.7,2.6,2c0,0.1,0,0.1,0,0.2c0,0.9-0.6,1.8-1.5,2.1l0,0c1.1,0.3,1.8,1.3,1.8,2.4c-0.1,1.5-1.4,2.7-2.9,2.7
		c-0.1,0-0.1,0-0.2,0C774.7,1564.7,773.6,1563.6,773.6,1562.3z M778.5,1562.2c0-1.1-0.8-1.6-2-2c-0.9,0.2-1.6,0.9-1.6,1.9
		c0,0.9,0.7,1.7,1.6,1.7c0.1,0,0.1,0,0.2,0C777.6,1563.9,778.4,1563.3,778.5,1562.2C778.5,1562.3,778.5,1562.2,778.5,1562.2z
		 M775.1,1557.6c0,0.9,0.7,1.4,1.7,1.7c0.8-0.2,1.3-0.9,1.4-1.6c0-0.8-0.6-1.5-1.3-1.5c-0.1,0-0.1,0-0.2,0
		C775.9,1556.1,775.2,1556.7,775.1,1557.6C775.1,1557.5,775.1,1557.6,775.1,1557.6z"/>
	<path class="st44" d="M786.9,1559.9c0,3.1-1.1,4.8-3.2,4.8c-1.8,0-3-1.7-3-4.7s1.3-4.7,3.2-4.7S786.9,1557,786.9,1559.9z M782,1560
		c0,2.4,0.7,3.7,1.9,3.7s1.9-1.5,1.9-3.8s-0.6-3.7-1.9-3.7C782.8,1556.3,782,1557.6,782,1560L782,1560z"/>
	<path class="st44" d="M894.9,876.6L894.9,876.6l-1.6,0.9l-0.2-0.9l2-1.1h1v9.1h-1.2V876.6z"/>
	<path class="st44" d="M905.5,879.9c0,3.1-1.1,4.8-3.2,4.8c-1.8,0-3-1.7-3-4.7s1.3-4.7,3.2-4.7S905.5,877,905.5,879.9z M900.6,880
		c0,2.4,0.7,3.7,1.8,3.7c1.3,0,1.9-1.5,1.9-3.8s-0.6-3.7-1.9-3.7C901.3,876.3,900.6,877.6,900.6,880L900.6,880z"/>
	<path class="st44" d="M893.1,924.6v-0.8l1-0.9c2.3-2.2,3.4-3.4,3.4-4.8c0.1-0.9-0.5-1.7-1.4-1.8c-0.1,0-0.2,0-0.4,0
		c-0.7,0-1.4,0.3-1.9,0.8l-0.4-0.9c0.7-0.6,1.6-0.9,2.6-0.9c1.4-0.1,2.6,0.9,2.8,2.3c0,0.1,0,0.2,0,0.3c0,1.7-1.2,3-3.1,4.9
		l-0.7,0.7l0,0h4.1v1L893.1,924.6z"/>
	<path class="st44" d="M906.3,920c0,3.1-1.1,4.8-3.2,4.8c-1.8,0-3-1.7-3-4.7s1.3-4.7,3.2-4.7S906.3,917.1,906.3,920z M901.3,920.1
		c0,2.4,0.7,3.7,1.9,3.7s1.9-1.5,1.9-3.8s-0.6-3.7-1.8-3.7C902.2,916.3,901.4,917.6,901.3,920.1L901.3,920.1z"/>
	<path class="st44" d="M893.4,963.1c0.6,0.4,1.3,0.6,2,0.6c1.6,0,2.1-1,2.1-1.8c0-1.3-1.2-1.8-2.4-1.8h-0.7v-0.9h0.7
		c0.9,0,2-0.5,2-1.5c0-0.7-0.5-1.4-1.6-1.4c-0.7,0-1.3,0.2-1.8,0.6l-0.3-0.9c0.7-0.5,1.5-0.7,2.4-0.7c1.8,0,2.6,1.1,2.6,2.2
		c0,1-0.7,1.9-1.7,2.1l0,0c1.2,0.2,2,1.2,2,2.3c0,1.5-1.1,2.7-3.3,2.7c-0.8,0-1.7-0.2-2.4-0.6L893.4,963.1z"/>
	<path class="st44" d="M906.4,959.9c0,3.1-1.1,4.8-3.2,4.8c-1.8,0-3-1.7-3-4.7s1.3-4.7,3.2-4.7S906.4,957,906.4,959.9z M901.4,960
		c0,2.4,0.7,3.7,1.9,3.7s1.9-1.5,1.9-3.8s-0.6-3.7-1.9-3.7C902.3,956.3,901.4,957.6,901.4,960L901.4,960z"/>
	<path class="st44" d="M897.3,1004.6v-2.5h-4.2v-0.8l4.1-5.8h1.3v5.7h1.3v1h-1.3v2.5L897.3,1004.6z M897.3,1001.1v-3
		c0-0.5,0-1,0.1-1.4h-0.1c-0.3,0.5-0.5,0.9-0.8,1.4l-2.2,3.1l0,0L897.3,1001.1z"/>
	<path class="st44" d="M906.7,999.9c0,3.1-1.1,4.8-3.2,4.8c-1.8,0-3-1.7-3-4.7s1.3-4.7,3.2-4.7S906.7,997,906.7,999.9z M901.8,1000
		c0,2.4,0.7,3.7,1.9,3.7s1.9-1.5,1.9-3.8s-0.6-3.7-1.8-3.7C902.6,996.3,901.8,997.6,901.8,1000L901.8,1000z"/>
	<path class="st44" d="M898.6,1036.5h-3.5l-0.4,2.3c0.2,0,0.5-0.1,0.7-0.1c0.7,0,1.4,0.2,2,0.5c0.8,0.5,1.3,1.4,1.3,2.3
		c0,1.7-1.5,3.1-3.2,3.1c-0.1,0-0.1,0-0.2,0c-0.8,0-1.6-0.2-2.3-0.6l0.3-0.9c0.6,0.3,1.3,0.5,2,0.5c1.1,0.1,2.1-0.7,2.2-1.8
		c0-0.1,0-0.1,0-0.2c0-1.2-0.8-2-2.6-2c-0.4,0-0.8,0-1.3,0.1l0.6-4.4h4.4V1036.5z"/>
	<path class="st44" d="M906.4,1039.9c0,3.1-1.1,4.8-3.2,4.8c-1.8,0-3-1.7-3-4.7s1.3-4.7,3.2-4.7S906.4,1037,906.4,1039.9z
		 M901.4,1040c0,2.4,0.7,3.7,1.9,3.7s1.9-1.5,1.9-3.8s-0.6-3.7-1.9-3.7C902.3,1036.3,901.4,1037.6,901.4,1040L901.4,1040z"/>
	<path class="st44" d="M898.4,1076.3c-0.3,0-0.6,0-0.9,0.1c-1.7,0.2-3,1.6-3.2,3.2l0,0c0.9-1.2,2.7-1.4,3.9-0.5
		c0.7,0.6,1.1,1.4,1,2.4c0.1,1.7-1.1,3.1-2.8,3.2c-0.1,0-0.1,0-0.2,0c-1.9,0-3.2-1.5-3.2-3.9c0-1.5,0.5-3,1.5-4.1
		c0.8-0.8,1.8-1.2,2.9-1.4c0.3,0,0.6-0.1,0.9-0.1L898.4,1076.3z M898.1,1081.6c0.1-1-0.6-1.9-1.6-2.1c-0.1,0-0.2,0-0.3,0
		c-0.8,0-1.4,0.4-1.8,1.1c-0.1,0.2-0.1,0.4-0.1,0.5c0,1.5,0.7,2.6,2,2.6C897.4,1083.8,898.1,1082.9,898.1,1081.6L898.1,1081.6z"/>
	<path class="st44" d="M906.5,1079.9c0,3.1-1.1,4.8-3.2,4.8c-1.8,0-3-1.7-3-4.7s1.3-4.7,3.2-4.7S906.5,1077,906.5,1079.9z
		 M901.5,1080c0,2.4,0.7,3.7,1.8,3.7c1.3,0,1.9-1.5,1.9-3.8s-0.6-3.7-1.9-3.7C902.3,1076.3,901.5,1077.6,901.5,1080L901.5,1080z"/>
	<path class="st44" d="M898.8,1115.5v0.8l-4,8.3h-1.3l3.9-8.1l0,0h-4.5v-1L898.8,1115.5z"/>
	<path class="st44" d="M906.1,1119.9c0,3.1-1.1,4.8-3.2,4.8c-1.8,0-3-1.7-3-4.7s1.3-4.7,3.2-4.7S906.1,1117,906.1,1119.9z
		 M901.1,1120c0,2.4,0.7,3.7,1.9,3.7s1.9-1.5,1.9-3.8s-0.6-3.7-1.9-3.7c-1,0-1.8,1.4-1.8,3.8H901.1z"/>
	<path class="st44" d="M893.1,1162.3c0-1.1,0.7-2.1,1.8-2.4l0,0c-0.8-0.3-1.4-1.1-1.4-2c0.1-1.4,1.3-2.5,2.7-2.4c0.1,0,0.1,0,0.2,0
		c1.3-0.2,2.5,0.7,2.6,2c0,0.1,0,0.1,0,0.2c0,1-0.6,1.8-1.5,2.1l0,0c1.1,0.3,1.8,1.3,1.8,2.4c-0.1,1.5-1.4,2.7-2.9,2.7
		c-0.1,0-0.1,0-0.2,0C894.3,1164.7,893.1,1163.6,893.1,1162.3z M898,1162.2c0-1.1-0.8-1.6-2-2c-0.9,0.2-1.6,0.9-1.6,1.9
		c0,0.9,0.7,1.7,1.6,1.7c0.1,0,0.1,0,0.2,0C897.1,1163.9,897.9,1163.2,898,1162.2C898,1162.3,898,1162.2,898,1162.2z M894.6,1157.6
		c0,0.9,0.7,1.4,1.7,1.7c0.8-0.2,1.3-0.9,1.4-1.6c0-0.8-0.6-1.5-1.3-1.5c-0.1,0-0.1,0-0.2,0C895.4,1156.1,894.7,1156.7,894.6,1157.6
		C894.6,1157.5,894.6,1157.6,894.6,1157.6z"/>
	<path class="st44" d="M906.4,1159.9c0,3.1-1.1,4.8-3.2,4.8c-1.8,0-3-1.7-3-4.7s1.3-4.7,3.2-4.7S906.4,1157,906.4,1159.9z
		 M901.5,1160c0,2.4,0.7,3.7,1.9,3.7s1.9-1.5,1.9-3.8s-0.6-3.7-1.9-3.7C902.3,1156.3,901.5,1157.6,901.5,1160L901.5,1160z"/>
	<path class="st44" d="M893.9,1203.7c0.3,0,0.7,0,1,0c0.7-0.1,1.4-0.4,1.9-0.9c0.7-0.6,1.1-1.5,1.2-2.4l0,0c-0.5,0.6-1.3,1-2.1,1
		c-1.5,0-2.7-1.1-2.7-2.6c0-0.1,0-0.1,0-0.2c-0.1-1.7,1.3-3.2,3-3.2h0.1c1.9,0,3,1.5,3,3.8c0.1,1.6-0.5,3.1-1.6,4.3
		c-0.7,0.7-1.7,1.1-2.6,1.2c-0.4,0.1-0.8,0.1-1.1,0.1L893.9,1203.7z M894.3,1198.5c-0.1,1,0.6,1.8,1.6,1.9c0.1,0,0.1,0,0.2,0
		c0.7,0,1.4-0.3,1.8-0.9c0.1-0.1,0.1-0.3,0.1-0.4c0-1.6-0.6-2.7-1.9-2.7C895,1196.2,894.3,1197.2,894.3,1198.5z"/>
	<path class="st44" d="M906.4,1199.9c0,3.1-1.1,4.8-3.2,4.8c-1.8,0-3-1.7-3-4.7s1.3-4.7,3.2-4.7S906.4,1197,906.4,1199.9z
		 M901.4,1200c0,2.4,0.7,3.7,1.9,3.7s1.9-1.5,1.9-3.8s-0.6-3.7-1.9-3.7C902.3,1196.3,901.4,1197.6,901.4,1200L901.4,1200z"/>
	<path class="st44" d="M894.9,1236.6L894.9,1236.6l-1.6,0.9l-0.2-0.9l2-1.1h1v9.1h-1.2V1236.6z"/>
	<path class="st44" d="M905.5,1239.9c0,3.1-1.1,4.8-3.2,4.8c-1.8,0-3-1.7-3-4.7s1.3-4.7,3.2-4.7S905.5,1237,905.5,1239.9z
		 M900.6,1240c0,2.4,0.7,3.7,1.8,3.7c1.3,0,1.9-1.5,1.9-3.8s-0.6-3.7-1.9-3.7C901.3,1236.3,900.6,1237.6,900.6,1240L900.6,1240z"/>
	<path class="st44" d="M912.7,1239.9c0,3.1-1.1,4.8-3.2,4.8c-1.8,0-3-1.7-3-4.7s1.3-4.7,3.2-4.7S912.7,1237,912.7,1239.9z
		 M907.7,1240c0,2.4,0.7,3.7,1.9,3.7s1.9-1.5,1.9-3.8s-0.6-3.7-1.9-3.7C908.5,1236.3,907.7,1237.6,907.7,1240L907.7,1240z"/>
	<path class="st44" d="M894.9,1276.6L894.9,1276.6l-1.6,0.9l-0.2-0.9l2-1.1h1v9.1h-1.2V1276.6z"/>
	<path class="st44" d="M902.1,1276.6L902.1,1276.6l-1.6,0.9l-0.2-0.9l2-1.1h1.1v9.1h-1.2L902.1,1276.6z"/>
	<path class="st44" d="M912.7,1279.9c0,3.1-1.1,4.8-3.2,4.8c-1.8,0-3-1.7-3-4.7s1.3-4.7,3.2-4.7S912.7,1277,912.7,1279.9z
		 M907.7,1280c0,2.4,0.7,3.7,1.9,3.7s1.9-1.5,1.9-3.8s-0.6-3.7-1.9-3.7C908.5,1276.3,907.7,1277.6,907.7,1280L907.7,1280z"/>
	<path class="st44" d="M894.9,1316.6L894.9,1316.6l-1.6,0.9l-0.2-0.9l2-1.1h1v9.1h-1.2V1316.6z"/>
	<path class="st44" d="M899.4,1324.6v-0.8l1-0.9c2.3-2.2,3.4-3.4,3.4-4.8c0.1-0.9-0.6-1.7-1.4-1.8c-0.1,0-0.2,0-0.4,0
		c-0.7,0-1.4,0.3-1.9,0.8l-0.4-0.9c0.7-0.6,1.6-0.9,2.6-0.9c1.4-0.1,2.7,0.9,2.8,2.3c0,0.1,0,0.2,0,0.3c0,1.7-1.2,3-3.1,4.9
		l-0.7,0.7l0,0h4.1v1L899.4,1324.6z"/>
	<path class="st44" d="M912.7,1319.9c0,3.1-1.1,4.8-3.2,4.8c-1.8,0-3-1.7-3-4.7s1.3-4.7,3.2-4.7S912.7,1317,912.7,1319.9z
		 M907.7,1320c0,2.4,0.7,3.7,1.9,3.7s1.9-1.5,1.9-3.8s-0.6-3.7-1.9-3.7C908.5,1316.3,907.7,1317.6,907.7,1320L907.7,1320z"/>
	<path class="st44" d="M894.9,1356.6L894.9,1356.6l-1.6,0.9l-0.2-0.9l2-1.1h1v9.1h-1.2V1356.6z"/>
	<path class="st44" d="M899.7,1363.1c0.6,0.4,1.3,0.6,2,0.6c1.6,0,2.1-1,2.1-1.8c0-1.3-1.2-1.8-2.4-1.8h-0.7v-0.9h0.7
		c0.9,0,2-0.5,2-1.5c0-0.7-0.5-1.4-1.6-1.4c-0.7,0-1.3,0.2-1.8,0.6l-0.3-0.9c0.7-0.5,1.5-0.7,2.4-0.7c1.8,0,2.6,1.1,2.6,2.2
		c0,1-0.7,1.9-1.7,2.1l0,0c1.2,0.2,2,1.2,2,2.3c0,1.5-1.1,2.7-3.3,2.7c-0.8,0-1.6-0.2-2.4-0.6L899.7,1363.1z"/>
	<path class="st44" d="M912.7,1359.9c0,3.1-1.1,4.8-3.2,4.8c-1.8,0-3-1.7-3-4.7s1.3-4.7,3.2-4.7S912.7,1357,912.7,1359.9z
		 M907.7,1360c0,2.4,0.7,3.7,1.9,3.7s1.9-1.5,1.9-3.8s-0.6-3.7-1.9-3.7C908.5,1356.3,907.7,1357.6,907.7,1360L907.7,1360z"/>
	<path class="st44" d="M894.9,1396.6L894.9,1396.6l-1.6,0.9l-0.2-0.9l2-1.1h1v9.1h-1.2V1396.6z"/>
	<path class="st44" d="M903.3,1404.6v-2.5H899v-0.8l4.1-5.8h1.3v5.7h1.3v1h-1.3v2.5L903.3,1404.6z M903.3,1401.1v-3c0-0.5,0-1,0-1.4
		l0,0c-0.3,0.5-0.5,0.9-0.8,1.4l-2.2,3.1l0,0L903.3,1401.1z"/>
	<path class="st44" d="M912.7,1399.9c0,3.1-1.1,4.8-3.2,4.8c-1.8,0-3-1.7-3-4.7s1.3-4.7,3.2-4.7S912.7,1397,912.7,1399.9z
		 M907.7,1400c0,2.4,0.7,3.7,1.9,3.7s1.9-1.5,1.9-3.8s-0.6-3.7-1.9-3.7C908.5,1396.3,907.7,1397.6,907.7,1400L907.7,1400z"/>
	<path class="st44" d="M894.9,1436.6L894.9,1436.6l-1.6,0.9l-0.2-0.9l2-1.1h1v9.1h-1.2V1436.6z"/>
	<path class="st44" d="M904.9,1436.5h-3.5l-0.4,2.3c0.2,0,0.5-0.1,0.7-0.1c0.7,0,1.4,0.2,2,0.5c0.8,0.5,1.3,1.4,1.3,2.3
		c0,1.7-1.5,3.1-3.2,3.1c-0.1,0-0.1,0-0.2,0c-0.8,0-1.6-0.2-2.3-0.6l0.3-0.9c0.6,0.3,1.3,0.5,1.9,0.5c1.1,0.1,2.1-0.7,2.2-1.8
		c0-0.1,0-0.1,0-0.2c0-1.2-0.8-2-2.6-2c-0.4,0-0.8,0-1.3,0.1l0.6-4.4h4.4L904.9,1436.5z"/>
	<path class="st44" d="M912.7,1439.9c0,3.1-1.1,4.8-3.2,4.8c-1.8,0-3-1.7-3-4.7s1.3-4.7,3.2-4.7S912.7,1437,912.7,1439.9z
		 M907.7,1440c0,2.4,0.7,3.7,1.9,3.7s1.9-1.5,1.9-3.8s-0.6-3.7-1.9-3.7C908.5,1436.3,907.7,1437.6,907.7,1440L907.7,1440z"/>
	<path class="st44" d="M894.9,1476.6L894.9,1476.6l-1.6,0.9l-0.2-0.9l2-1.1h1v9.1h-1.2V1476.6z"/>
	<path class="st44" d="M904.6,1476.3c-0.3,0-0.6,0-0.9,0.1c-1.7,0.2-3,1.6-3.2,3.2l0,0c0.9-1.2,2.7-1.4,3.9-0.5
		c0.7,0.6,1.1,1.4,1,2.4c0.1,1.7-1.1,3.1-2.8,3.2c-0.1,0-0.1,0-0.2,0c-2,0-3.2-1.5-3.2-3.9c-0.1-1.5,0.5-3,1.5-4.1
		c0.8-0.8,1.8-1.2,2.9-1.4c0.3,0,0.6-0.1,0.9-0.1L904.6,1476.3z M904.3,1481.6c0.1-1-0.6-1.9-1.6-2.1c-0.1,0-0.2,0-0.3,0
		c-0.8,0-1.4,0.4-1.8,1.1c-0.1,0.2-0.1,0.4-0.1,0.5c0,1.5,0.7,2.6,2,2.6C903.6,1483.8,904.3,1482.9,904.3,1481.6L904.3,1481.6z"/>
	<path class="st44" d="M912.7,1479.9c0,3.1-1.1,4.8-3.2,4.8c-1.8,0-3-1.7-3-4.7s1.3-4.7,3.2-4.7S912.7,1477,912.7,1479.9z
		 M907.7,1480c0,2.4,0.7,3.7,1.9,3.7s1.9-1.5,1.9-3.8s-0.6-3.7-1.9-3.7C908.5,1476.3,907.7,1477.6,907.7,1480L907.7,1480z"/>
	<path class="st44" d="M894.9,1516.6L894.9,1516.6l-1.6,0.9l-0.2-0.9l2-1.1h1v9.1h-1.2V1516.6z"/>
	<path class="st44" d="M905.4,1515.5v0.8l-4,8.3h-1.3l3.9-8.1l0,0h-4.4v-1L905.4,1515.5z"/>
	<path class="st44" d="M912.7,1519.9c0,3.1-1.1,4.8-3.2,4.8c-1.8,0-3-1.7-3-4.7s1.3-4.7,3.2-4.7S912.7,1517,912.7,1519.9z
		 M907.7,1520c0,2.4,0.7,3.7,1.9,3.7s1.9-1.5,1.9-3.8s-0.6-3.7-1.9-3.7C908.5,1516.3,907.7,1517.6,907.7,1520L907.7,1520z"/>
	<path class="st44" d="M894.9,1556.6L894.9,1556.6l-1.6,0.9l-0.2-0.9l2-1.1h1v9.1h-1.2V1556.6z"/>
	<path class="st44" d="M899.3,1562.3c0-1.1,0.7-2.1,1.8-2.4l0,0c-0.8-0.3-1.4-1.1-1.4-2c0.1-1.4,1.3-2.5,2.7-2.4h0.1
		c1.3-0.2,2.5,0.7,2.6,2c0,0.1,0,0.1,0,0.2c0,1-0.6,1.8-1.5,2.1l0,0c1.1,0.3,1.8,1.2,1.8,2.4c0,1.6-1.4,2.6-3.1,2.6
		C900.5,1564.7,899.3,1563.6,899.3,1562.3z M904.2,1562.2c0-1.1-0.8-1.6-2-2c-0.9,0.2-1.6,0.9-1.6,1.9c0,0.9,0.7,1.7,1.6,1.7
		c0.1,0,0.1,0,0.2,0c0.9,0.1,1.7-0.5,1.8-1.4C904.2,1562.3,904.2,1562.3,904.2,1562.2L904.2,1562.2z M900.8,1557.6
		c0,0.9,0.7,1.4,1.7,1.7c0.8-0.2,1.3-0.9,1.4-1.6c0-0.8-0.6-1.5-1.3-1.5c-0.1,0-0.1,0-0.2,0C901.6,1556.1,900.9,1556.7,900.8,1557.6
		C900.8,1557.5,900.8,1557.6,900.8,1557.6z"/>
	<path class="st44" d="M912.7,1559.9c0,3.1-1.1,4.8-3.2,4.8c-1.8,0-3-1.7-3-4.7s1.3-4.7,3.2-4.7S912.7,1557,912.7,1559.9z
		 M907.7,1560c0,2.4,0.7,3.7,1.9,3.7s1.9-1.5,1.9-3.8s-0.6-3.7-1.9-3.7C908.5,1556.3,907.7,1557.6,907.7,1560L907.7,1560z"/>
</g>
</svg>
