<svg id="Layer_1" data-name="Layer 1" xmlns="http://www.w3.org/2000/svg" viewBox="0 0 232.31 232.31"><defs><style>.cls-1{fill:#fff;}</style></defs><rect class="cls-1" x="1969.33" y="1887.75" width="3.15" height="13.39" transform="translate(-2315.7 -1293.28) rotate(-15.38)"/><rect class="cls-1" x="1943.18" y="1898.79" width="3.15" height="13.39" transform="translate(-2580.26 -639.54) rotate(-30.36)"/><rect class="cls-1" x="1903.91" y="1938.06" width="3.15" height="13.39" transform="translate(-2619.53 722.09) rotate(-59.64)"/><rect class="cls-1" x="1892.87" y="1964.21" width="3.15" height="13.39" transform="translate(-2392.16 1390.94) rotate(-74.62)"/><rect class="cls-1" x="1887.75" y="2027.52" width="13.39" height="3.15" transform="translate(-2354.15 -1308.74) rotate(-15.38)"/><rect class="cls-1" x="1898.79" y="2053.67" width="13.39" height="3.15" transform="translate(-2661.34 -638.85) rotate(-30.36)"/><rect class="cls-1" x="1915.9" y="2075.83" width="13.39" height="3.15" transform="translate(-2789.67 84.1) rotate(-45)"/><rect class="cls-1" x="1938.06" y="2092.94" width="13.39" height="3.15" transform="translate(-2729.33 830.04) rotate(-59.64)"/><rect class="cls-1" x="1964.21" y="2103.98" width="13.39" height="3.15" transform="translate(-2465.81 1563.6) rotate(-74.62)"/><rect class="cls-1" x="2027.52" y="2098.86" width="3.15" height="13.39" transform="translate(-2369.61 -1270.29) rotate(-15.38)"/><rect class="cls-1" x="2075.83" y="2070.71" width="3.15" height="13.39" transform="translate(-2744.33 193.56) rotate(-45)"/><rect class="cls-1" x="2092.94" y="2048.55" width="3.15" height="13.39" transform="translate(-2621.38 939.85) rotate(-59.64)"/><rect class="cls-1" x="2103.98" y="2022.41" width="3.15" height="13.39" transform="translate(-2293.16 1637.25) rotate(-74.62)"/><rect class="cls-1" x="2098.86" y="1969.33" width="13.39" height="3.15" transform="translate(-2331.16 -1254.83) rotate(-15.38)"/><rect class="cls-1" x="2087.82" y="1943.18" width="13.39" height="3.15" transform="translate(-2579.57 -558.46) rotate(-30.36)"/><rect class="cls-1" x="2048.55" y="1903.91" width="13.39" height="3.15" transform="translate(-2511.58 831.9) rotate(-59.64)"/><rect class="cls-1" x="2022.41" y="1892.87" width="13.39" height="3.15" transform="translate(-2219.5 1464.6) rotate(-74.62)"/><path class="cls-1" d="M2003.09,1890.44c0,3.1-1.15,4.8-3.17,4.8-1.78,0-3-1.66-3-4.67s1.32-4.74,3.17-4.74S2003.09,1887.54,2003.09,1890.44Zm-4.95.14c0,2.37.73,3.71,1.85,3.71s1.87-1.47,1.87-3.79-.58-3.72-1.85-3.72C1998.93,1886.78,1998.14,1888.1,1998.14,1890.58Z" transform="translate(-1883.84 -1883.84)"/><rect class="cls-1" x="114.58" y="11.81" width="3.15" height="1.58"/><rect class="cls-1" x="114.58" width="3.15" height="1.58"/><path class="cls-1" d="M2008,2112.87h0l1.59-.86.23.94-2,1.07h-1v-9.11h1.2Z" transform="translate(-1883.84 -1883.84)"/><path class="cls-1" d="M2003.55,2107.22a2.61,2.61,0,0,1-1.81,2.44l0,0a2.25,2.25,0,0,1,1.44,2.05,2.55,2.55,0,0,1-2.81,2.42,2.35,2.35,0,0,1-2.65-2.24,2.31,2.31,0,0,1,1.5-2.13v0a2.53,2.53,0,0,1-1.84-2.36c0-1.58,1.36-2.64,3.1-2.64C2002.4,2104.76,2003.55,2105.89,2003.55,2107.22Zm-4.9.06c0,1.1.77,1.64,2,2a2,2,0,0,0,1.64-1.88,1.68,1.68,0,0,0-1.82-1.74A1.65,1.65,0,0,0,1998.65,2107.28Zm3.39,4.55c0-.91-.69-1.4-1.74-1.68a1.8,1.8,0,0,0-1.38,1.65,1.42,1.42,0,0,0,1.54,1.49A1.45,1.45,0,0,0,2002,2111.83Z" transform="translate(-1883.84 -1883.84)"/><path class="cls-1" d="M1990.21,2109.56c0-3.1,1.14-4.8,3.16-4.8,1.78,0,3,1.66,3,4.67s-1.31,4.74-3.16,4.74S1990.21,2112.46,1990.21,2109.56Zm4.94-.14c0-2.37-.73-3.71-1.85-3.71s-1.86,1.47-1.86,3.79.57,3.72,1.85,3.72C1994.37,2113.22,1995.15,2111.9,1995.15,2109.42Z" transform="translate(-1883.84 -1883.84)"/><rect class="cls-1" x="114.58" y="218.93" width="3.15" height="1.58"/><rect class="cls-1" x="114.58" y="230.74" width="3.15" height="1.58"/><path class="cls-1" d="M2105.78,1994.13a5.09,5.09,0,0,0,0,1,3.48,3.48,0,0,0,.88,1.91,4,4,0,0,0,2.43,1.2v0a2.67,2.67,0,0,1-1-2.15,2.63,2.63,0,0,1,2.78-2.68,3.12,3.12,0,0,1,3.24,3.1c0,1.87-1.51,3-3.84,3a5.78,5.78,0,0,1-4.27-1.57,4.53,4.53,0,0,1-1.22-2.65,6,6,0,0,1-.07-1.13Zm5.24.44a1.76,1.76,0,0,0-1.94,1.76,2,2,0,0,0,1,1.79.81.81,0,0,0,.45.11c1.55,0,2.74-.57,2.74-1.86C2113.23,1995.32,2112.31,1994.57,2111,1994.57Z" transform="translate(-1883.84 -1883.84)"/><path class="cls-1" d="M2109.56,2006.64c-3.1,0-4.8-1.14-4.8-3.16,0-1.78,1.66-3,4.67-3s4.74,1.31,4.74,3.16S2112.46,2006.64,2109.56,2006.64Zm-.14-4.94c-2.37,0-3.71.73-3.71,1.85s1.47,1.86,3.79,1.86,3.72-.57,3.72-1.85C2113.22,2002.48,2111.9,2001.7,2109.42,2001.7Z" transform="translate(-1883.84 -1883.84)"/><rect class="cls-1" x="218.92" y="114.58" width="1.58" height="3.15"/><rect class="cls-1" x="230.74" y="114.58" width="1.58" height="3.15"/><path class="cls-1" d="M1895.09,2010.21h-.76l-.94-1c-2.21-2.32-3.39-3.38-4.76-3.39a1.63,1.63,0,0,0-1.78,1.81,3.11,3.11,0,0,0,.77,1.93l-.86.39a3.94,3.94,0,0,1-.93-2.57,2.56,2.56,0,0,1,2.65-2.79c1.68,0,3,1.22,4.89,3.14l.67.72h0v-4.09h1Z" transform="translate(-1883.84 -1883.84)"/><path class="cls-1" d="M1886,1997.11h.82l8.29,4v1.27l-8-3.95h0v4.46h-1Z" transform="translate(-1883.84 -1883.84)"/><path class="cls-1" d="M1890.44,1989.79c3.1,0,4.8,1.15,4.8,3.17,0,1.78-1.66,3-4.67,3s-4.74-1.32-4.74-3.17S1887.54,1989.79,1890.44,1989.79Zm.14,5c2.37,0,3.71-.73,3.71-1.85s-1.47-1.87-3.79-1.87-3.72.58-3.72,1.85C1886.78,1994,1888.1,1994.74,1890.58,1994.74Z" transform="translate(-1883.84 -1883.84)"/><rect class="cls-1" y="114.57" width="1.58" height="3.15"/><rect class="cls-1" x="11.81" y="114.57" width="1.58" height="3.15"/><path class="cls-1" d="M2071.69,1923.29l1.75-1.75-3-3,.57-.57,7-1.24.94.94-4,4,.9.9-.69.68-.9-.9-1.75,1.76Zm2.43-2.43,2.15-2.15c.34-.34.69-.67,1-1l0,0c-.57.18-1,.3-1.48.41l-3.76.62,0,0Z" transform="translate(-1883.84 -1883.84)"/><path class="cls-1" d="M2083.62,1923.82l-2.46-2.46-1.9,1.41a3.9,3.9,0,0,1,.57.48,4,4,0,0,1,1,1.73,2.6,2.6,0,0,1-.74,2.58,3.15,3.15,0,0,1-4.59-.2,4.37,4.37,0,0,1-1.21-2l.88-.44a4.14,4.14,0,0,0,1,1.73,2,2,0,0,0,2.92.13c.83-.84.86-2-.42-3.28a10.46,10.46,0,0,0-1-.82l3.5-2.68,3.08,3.08Z" transform="translate(-1883.84 -1883.84)"/><rect class="cls-1" x="2072.44" y="1925.21" width="1.58" height="3.15" transform="translate(-2639.06 146.49) rotate(-45)"/><rect class="cls-1" x="2080.79" y="1916.76" width="1.58" height="3.15" transform="translate(-2630.63 149.92) rotate(-45)"/><path class="cls-1" d="M1918,1931.71a4.07,4.07,0,0,0,1.83-1,1.78,1.78,0,0,0,.21-2.7c-.91-.89-2.11-.47-3,.37l-.49.49-.65-.66.48-.48a1.81,1.81,0,0,0,.35-2.53,1.38,1.38,0,0,0-2.1.16,3.4,3.4,0,0,0-.86,1.72l-.86-.41a4.29,4.29,0,0,1,1.19-2.18c1.26-1.27,2.59-1.09,3.37-.31a2.27,2.27,0,0,1,.33,2.71l0,0a2.35,2.35,0,0,1,3.09.22c1,1,1.13,2.73-.42,4.27a4.54,4.54,0,0,1-2.11,1.24Z" transform="translate(-1883.84 -1883.84)"/><path class="cls-1" d="M1920.14,1920.32l0,0-.51,1.73-.83-.5.65-2.16.74-.74,6.44,6.44-.84.84Z" transform="translate(-1883.84 -1883.84)"/><path class="cls-1" d="M1927.1,1913.21l-2.46,2.46,1.41,1.9a3.92,3.92,0,0,1,.48-.56,3.85,3.85,0,0,1,1.73-1,2.6,2.6,0,0,1,2.58.73,3.16,3.16,0,0,1-.2,4.6,4.46,4.46,0,0,1-2,1.21l-.45-.89a4,4,0,0,0,1.74-1,2,2,0,0,0,.13-2.92c-.85-.82-2-.86-3.28.43a7.43,7.43,0,0,0-.82,1l-2.68-3.51,3.08-3.08Z" transform="translate(-1883.84 -1883.84)"/><rect class="cls-1" x="1916.85" y="1917.64" width="3.15" height="1.58" transform="translate(-2678.48 34.58) rotate(-45)"/><rect class="cls-1" x="1925.28" y="1925.99" width="3.15" height="1.58" transform="translate(-2681.92 42.99) rotate(-45)"/><rect class="cls-1" x="2053.67" y="2087.82" width="3.15" height="13.39" transform="translate(-2660.65 -557.77) rotate(-30.36)"/></svg>